<svg width="77" height="87" viewBox="0 0 77 87" fill="none" xmlns="http://www.w3.org/2000/svg">
<path d="M51.7253 69.595C51.3987 68.9807 51.2333 68.5841 50.9154 67.9746C50.4645 67.1153 50.5705 67.6941 48.9817 65.0362C48.0368 63.4575 47.8808 62.0692 46.9737 56.0218C46.8624 55.2798 49.141 50.188 49.741 47.2585C50.1946 45.0368 49.9057 43.1167 50.2715 42.6021C50.8027 41.8561 50.9039 40.6909 51.8401 38.7593C52.4907 37.4167 54.7214 34.2333 56.618 29.25C57.1634 27.8166 58.7542 24.1991 58.1839 23.2087C57.4604 21.9556 48.2953 15.3662 43.3675 11.191C43.2757 10.3413 43.5025 10.4034 43.5362 10.0368C43.8777 6.1463 43.4012 6.58381 43.2534 5.94904C43.0111 4.89791 43.4107 6.26847 42.3652 2.80452C42.0864 1.88171 42.1364 1.79502 41.5634 1.44829C41.209 0.424459 41.2373 0.483158 41.1948 0.406713C40.7224 -0.445113 40.2938 0.166454 39.9698 1.08926C39.8004 1.57251 39.6141 1.37457 39.1977 1.70356C38.4019 2.33014 37.816 3.84678 37.5589 4.76686C37.5278 4.87675 37.3618 5.22144 37.2855 5.45692C37.1674 5.82413 37.1742 6.07121 37.083 6.07121C36.7746 6.05893 36.726 6.08828 36.6059 6.35447C36.5409 6.50254 36.5269 6.66836 36.566 6.82543C37.3875 10.6593 37.3085 10.1017 36.7179 10.5569C30.7359 15.156 20.8958 19.9161 21.2313 22.7241C21.6909 26.5703 23.414 30.7864 28.8858 40.8691C29.8517 42.6499 30.6407 45.6647 31.0652 47.6427C31.5181 49.7436 32.1546 51.4398 32.4239 53.1987C32.8005 55.6812 29.7997 61.1505 29.0357 63.6172C28.3546 65.813 27.843 66.5023 27.1532 67.6388C26.8833 68.0831 26.6187 68.548 26.5775 68.5896C26.4061 68.763 25.7878 69.3404 25.5516 69.3807C24.822 68.8046 23.4289 68.0053 23.0401 68.8544C22.8376 69.2994 22.4887 68.9998 21.1219 69.7977C20.2877 70.2844 20.6231 71.0263 20.8094 71.7723C20.7939 71.7723 10.424 70.01 3.522 71.9703C0.0244217 72.9641 -1.11218 75.8403 1.22718 78.9849C4.48312 83.3641 21.9372 85.4753 25.1581 85.2882C25.9107 85.2446 25.5705 85.3463 28.387 85.1681C28.846 85.1388 30.1567 84.9353 31.4648 85.0609C32.8147 85.1899 36.5944 86.5748 37.5758 86.652C41.1152 86.9298 45.3154 85.9605 54.226 84.9244C61.8867 84.033 66.2738 84.0637 71.6484 81.7847C78.0219 79.0777 77.9544 73.9271 74.845 72.7893C73.0226 72.1218 64.9448 71.0918 61.454 71.3266C59.4197 71.4631 59.5385 71.5205 59.3104 71.4003C57.8471 70.6345 56.6862 70.8277 55.6913 70.8495C54.5763 70.8734 54.1977 70.4325 52.7141 69.6892C52.4732 69.5718 52.3524 69.595 51.7253 69.595ZM26.7321 23.6742C28.5308 22.2518 26.672 23.8613 30.4288 19.4527C31.1442 18.6124 31.2535 18.8035 33.8035 16.59C40.1055 11.1207 37.1046 13.6748 38.8885 12.3166C39.8247 11.604 39.766 11.4504 40.0042 11.6504C45.6994 16.4201 50.0488 22.7077 52.0068 23.821C52.2019 23.9316 52.5468 24.1711 52.6277 24.3977C52.3348 25.3711 52.0608 26.3457 51.5478 27.3095C47.2531 35.3636 46.1111 39.4897 45.2918 38.7395C44.9003 38.3812 44.4413 38.5034 43.7454 38.6563C43.1704 38.7825 42.7708 37.9055 42.7276 37.2161C42.6662 36.2312 43.1326 34.7316 43.4606 33.8606C43.7083 33.2068 43.9122 33.6286 45.1649 31.441C45.5206 31.4963 45.6468 31.4362 45.7811 31.155C45.9788 30.7387 45.8331 30.4943 45.6677 29.9947C46.2002 29.3667 46.6524 27.588 45.9586 27.0399C45.935 26.7669 45.9147 26.5096 45.8877 26.2509C45.852 25.9021 45.721 26.0659 45.8128 25.6844C46.2805 23.7398 45.5057 20.9911 43.1434 19.3202C43.055 19.2581 42.9733 19.1837 42.893 19.1223C42.9605 18.6766 42.8255 18.349 42.4496 18.1319C42.1418 17.9538 43.1488 17.2739 42.2322 16.2747C41.1348 15.0782 38.2689 14.6263 37.7141 16.3197C37.2801 17.6439 37.7006 17.6937 37.4401 17.8507C37.214 17.9872 37.243 18.2009 37.27 18.4493C37.2936 18.6711 37.2963 18.6698 37.0041 18.8172C35.337 19.6601 34.0343 21.4962 33.9992 23.922C33.9803 25.2502 34.2874 25.4339 34.1302 25.9014C33.9378 26.4713 34.1889 26.6727 34.4379 26.9887C34.3367 27.1553 33.9358 27.3546 34.0519 28.074C34.1106 28.4412 34.4055 29.4575 34.7201 29.6541C35.4585 30.1155 33.9101 30.5489 34.8112 31.5379C34.9961 31.7427 35.1574 31.6137 35.3849 31.4942C35.5489 31.7277 35.37 31.4205 35.8843 32.4109C37.4495 35.4251 37.3497 33.3665 37.1627 36.3329C37.1148 37.0905 37.2255 37.1738 36.8853 37.8092C36.6707 38.2106 36.2495 38.2058 35.7284 38.1505C34.4919 38.014 34.9759 39.2173 33.41 38.1123C31.2839 36.61 26.8401 24.0899 26.7321 23.6742Z" fill="#FF8181"/>
</svg>
