<svg width="235" height="273" viewBox="0 0 235 273" fill="none" xmlns="http://www.w3.org/2000/svg">
<g clip-path="url(#clip0_15_3005)">
<path d="M95.1126 22.8359C95.1126 22.8359 91.9032 24.509 91.7534 31.5587C91.6037 38.6083 98.3363 41.8758 102.587 41.7972L102.216 40.6961C102.216 40.6961 94.9771 39.8953 93.1014 33.7465C92.5539 31.9779 92.4697 30.0978 92.8569 28.2871C93.2441 26.4764 94.0897 24.7961 95.3123 23.4079L95.1126 22.8359Z" fill="#42211F"/>
<path d="M212.106 145.855C212.106 145.855 210.63 156.995 191.138 161.249C171.646 165.503 151.527 154.364 151.527 154.364L154.808 154.035C154.808 154.035 166.176 160.641 179.82 159.833C193.463 159.025 201.216 150.717 201.216 150.717L212.106 145.855Z" fill="#42211F"/>
<path d="M216.913 91.9679C218.126 78.1903 199.126 64.0123 176.489 60.3587C153.852 56.7052 155.485 32.4746 155.485 32.4746L110.261 58.6285C110.261 58.6285 108.171 80.2566 93.1015 92.4112C78.0315 104.566 75.4283 133.344 82.5033 144.69C89.5782 156.037 102.109 156.845 121.615 155.63C141.121 154.414 150.143 155.429 171.839 157.253C193.535 159.076 208.975 164.009 222.141 139.929C235.307 115.848 216.913 91.9679 216.913 91.9679ZM215.087 90.8597C215.087 90.8597 212.77 84.0674 203.876 77.0821C198.834 73.0682 193.495 69.4424 187.907 66.2359C215.594 74.9514 215.901 90.8597 215.901 90.8597H215.087Z" fill="#42211F"/>
<path d="M94.6703 79.6914C94.6703 79.6914 88.2515 85.4899 83.7155 97.6445C79.1796 109.799 69.5728 147.486 69.5728 147.486L85.092 157.188L100.069 116.084L94.6703 79.6914Z" fill="#DE6E5C"/>
<path d="M156.512 138.141C155.342 141.604 154.882 145.268 155.162 148.914C155.441 152.56 156.454 156.111 158.138 159.354L158.973 162.965L161.255 172.824C145.622 186.409 123.905 191.013 110.546 188.06C97.1881 185.108 93.7861 174.14 93.7861 174.14L95.8473 159.654L92.2812 127.43C92.2812 127.43 89.514 123.198 88.3372 113.445C87.1605 103.693 94.6419 79.6841 94.6419 79.6841L118.969 69.9389L136.714 68.416L166.304 79.6841L170.134 89.3005C169.999 94.6128 166.091 108.29 162.011 121.21C160.107 127.352 158.138 133.322 156.512 138.141Z" fill="#FFDCC6"/>
<path d="M136.935 70.0107C134.153 75.0871 124.226 81.4504 120.217 80.0633C116.209 78.6763 119.461 71.4836 119.461 71.4836C119.497 70.4683 119.533 69.5317 119.561 68.6666C119.747 62.9467 119.711 60.5158 119.711 60.5158L136.935 49.0762C136.528 51.3425 136.301 53.6376 136.257 55.94C136.167 60.6402 136.393 65.3411 136.935 70.0107Z" fill="#DE6E5C"/>
<path d="M136.935 49.1123C136.528 51.3786 136.301 53.6738 136.257 55.9761C134.289 58.9432 130.994 63.3904 127.577 65.8285C124.047 68.3524 121.159 68.7313 119.561 68.6884C119.746 62.9686 119.711 60.5376 119.711 60.5376L136.935 49.1123Z" fill="#C85346"/>
<path d="M100.975 43.0414C100.975 43.0414 101.567 57.1765 111.495 63.5398C121.423 69.9031 135.323 56.5759 137.705 49.2402C140.087 41.9046 139.295 25.9463 139.295 25.9463C139.295 25.9463 126.187 17.1592 116.252 17.1592C106.317 17.1592 100.968 22.164 100.968 22.164L100.975 43.0414Z" fill="#DE6E5C"/>
<path d="M112.286 17.4385C112.286 17.4385 111.994 22.6364 121.522 28.7065C131.051 34.7767 136.221 36.0207 136.221 36.0207L138.24 47.1887C138.24 47.1887 136.856 50.6921 136.464 51.9647C136.043 53.3947 136.207 57.7775 136.207 57.7775C136.207 57.7775 144.259 56.5835 147.041 49.1191C149.601 46.9973 151.686 44.3586 153.16 41.3749C154.635 38.3912 155.466 35.1295 155.599 31.8024C155.899 20.6559 150.136 17.1668 150.136 17.1668C150.136 17.1668 148.638 3.82528 133.939 1.53735C119.24 -0.750577 107.551 7.50742 107.551 7.50742C107.551 7.50742 100.419 6.5136 96.5318 11.5899C92.6448 16.6663 95.141 22.8365 95.141 22.8365C95.141 22.8365 91.7676 26.1183 93.7146 31.4949C94.2958 33.0497 95.2699 34.4266 96.5413 35.4906C97.8128 36.5547 99.3381 37.2695 100.968 37.5651C100.968 37.5651 101.46 28.4062 104.142 23.8304C106.823 19.2545 112.286 17.4385 112.286 17.4385Z" fill="#42211F"/>
<path d="M136.935 37.6652C136.935 37.6652 138.818 32.9893 142.69 32.4888C146.563 31.9883 146.863 38.8592 144.181 43.4351C141.499 48.0109 137.762 47.1244 137.762 47.1244L136.935 37.6652Z" fill="#DE6E5C"/>
<path d="M135.023 32.4668C135.023 32.4668 137.605 40.2529 136.115 46.4232C136.472 46.0469 136.797 45.6402 137.085 45.2077C138.333 43.3917 138.846 36.4707 139.41 34.0969L135.023 32.4668Z" fill="#42211F"/>
<path d="M107.33 8.20826C109.712 5.08719 112.989 2.77181 116.723 1.57327C120.408 0.420074 124.356 0.420074 128.041 1.57327L129.04 1.50177C125.166 -0.151602 120.846 -0.429079 116.794 0.715293C110.304 2.69578 105.803 7.80787 105.803 7.80787L107.33 8.20826Z" fill="#42211F"/>
<path d="M150.115 17.1592C151.279 17.4716 152.366 18.0223 153.307 18.7766C154.249 19.5309 155.024 20.4725 155.585 21.542C157.632 25.2599 155.521 29.0278 155.521 29.0278L155.178 28.5774C155.65 27.5087 155.86 26.3429 155.791 25.1766C155.723 24.0103 155.379 22.877 154.786 21.8709C152.746 18.3746 150.115 18.5534 150.115 18.5534V17.1592Z" fill="#42211F"/>
<path d="M102.216 35.1985C102.216 35.1985 102.623 34.2547 105.561 34.3191C107.275 34.3329 108.933 34.9333 110.261 36.0207C110.261 36.0207 108.913 33.4897 106.239 33.1608C105.437 33.0016 104.606 33.1158 103.877 33.485C103.148 33.8543 102.563 34.4575 102.216 35.1985Z" fill="#42211F"/>
<path d="M112.286 17.4384C112.286 17.4384 111.83 22.5362 114.804 26.6545C117.778 30.7728 126.586 30.7442 126.586 30.7442L126.943 31.5378C126.943 31.5378 118.249 31.6093 114.74 28.4848C111.231 25.3604 110.831 20.1554 111.495 17.417L112.286 17.4384Z" fill="#42211F"/>
<path d="M118.199 35.5271C118.199 35.5271 118.67 34.4332 122.065 34.5047C124.044 34.5183 125.959 35.2095 127.492 36.4637C127.492 36.4637 125.93 33.5395 122.842 33.132C119.754 32.7244 118.263 35.0338 118.199 35.5271Z" fill="#42211F"/>
<path d="M110.261 48.9115C110.899 49.376 111.628 49.6978 112.401 49.8552C113.328 50.1578 114.326 50.1578 115.253 49.8552C115.053 49.5423 114.786 49.2775 114.471 49.0798C114.157 48.8821 113.803 48.7563 113.435 48.7113C112.373 48.6248 111.304 48.6923 110.261 48.9115Z" fill="#A73B34"/>
<path d="M110.261 36.0205C110.261 36.0205 111.195 37.0215 111.545 39.5954C111.756 41.1301 111.756 42.6866 111.545 44.2213C111.545 44.2213 110.368 37.4648 110.261 36.0205Z" fill="#C85346"/>
<path d="M102.587 38.9089C103.63 39.3265 104.723 39.603 105.839 39.7312C107.198 39.8116 108.561 39.6862 109.883 39.3594C109.883 39.3594 109.049 37.1143 107.13 36.5924C104.127 35.7487 102.587 38.9089 102.587 38.9089Z" fill="#C85346"/>
<path d="M118.199 39.2734C118.199 39.2734 118.499 36.9783 121.423 36.4778C124.347 35.9773 127.841 39.0589 127.841 39.0589C127.841 39.0589 122.072 41.8116 118.199 39.2734Z" fill="#C85346"/>
<path d="M106.317 39.71C105.037 39.6587 103.775 39.3879 102.587 38.9092L102.216 39.1594C101.968 39.2816 101.7 39.3591 101.424 39.3882C101.875 39.5741 102.368 39.6358 102.851 39.567C103.893 40.1622 105.068 40.4843 106.267 40.5036C107.537 40.5871 108.804 40.3043 109.919 39.6885V39.3596C108.735 39.6092 107.527 39.7267 106.317 39.71Z" fill="#42211F"/>
<path d="M127.827 39.0596C126.264 39.5112 124.653 39.7752 123.027 39.846C121.439 39.8608 119.858 39.6391 118.334 39.1883L117.878 39.4743C117.571 39.6179 117.244 39.7143 116.908 39.7602C117.476 39.934 118.077 39.9732 118.662 39.8746C120.012 40.4585 121.472 40.7391 122.942 40.6969C125.98 40.6039 126.921 39.8818 127.577 39.4457C127.681 39.3313 127.765 39.2009 127.827 39.0596Z" fill="#42211F"/>
<path d="M110.261 53.4236C111.074 53.7127 111.912 53.9234 112.764 54.0528C114.776 54.4532 119.54 53.4236 119.54 53.4236C118.007 53.1495 116.459 52.9728 114.904 52.8945C114.233 52.9313 113.583 53.1459 113.021 53.5166C112.543 53.1144 111.976 52.8325 111.367 52.6943C110.758 52.7491 110.158 52.8714 109.576 53.059L110.261 53.4236Z" fill="#A73B34"/>
<path d="M110.981 55.5537C111.994 56.1702 113.149 56.5126 114.333 56.5475C115.746 56.5309 117.145 56.2722 118.47 55.7825C118.012 56.3501 117.444 56.8189 116.801 57.1605C116.157 57.5021 115.451 57.7095 114.726 57.7701C112.18 58.0347 110.981 55.5537 110.981 55.5537Z" fill="#C85346"/>
<path d="M86.604 182.92L95.1624 164.58C95.1624 164.58 100.868 170.586 118.213 171.194C135.558 171.802 158.987 162.972 158.987 162.972C158.987 162.972 164.978 178.487 164.978 184.264C164.978 190.041 130.744 212.863 130.744 212.863L110.432 211.34L86.604 182.92Z" fill="#843D3A"/>
<path d="M85.634 212.835C85.634 212.835 80.0211 215.023 78.0955 215.917C78.0955 215.917 69.7154 216.782 66.3491 217.775C62.9827 218.769 62.134 223.295 61.3067 228.178C60.4794 233.062 54.1747 239.618 52.2562 243.014C50.3377 246.41 51.2363 250.457 51.543 251.294C51.8497 252.13 50.6372 254.983 52.0636 256.749C53.49 258.515 54.2746 257.607 55.0519 257.171C55.8293 256.735 56.0718 255.176 56.0718 255.176C57.1135 254.99 58.1179 254.635 59.0459 254.125C59.8589 253.496 59.0459 253.481 61.0286 252.838C62.5205 252.426 63.9281 251.753 65.1865 250.85C66.2991 250.028 72.6252 239.025 76.6548 235.507C80.6844 231.989 87.9377 230.752 87.9377 230.752L85.634 212.835Z" fill="#DE6E5C"/>
<path d="M195.482 232.582C181.795 236.043 152.069 238.481 125.431 240.061C97.9868 241.691 73.8093 242.413 73.8093 242.413L69.7441 229.508L66.1353 217.997L145.914 202.139C145.914 202.139 143.774 185.58 161.127 176.664C161.127 176.664 212.862 177.072 225.4 191.679C237.938 206.286 224.388 225.297 195.482 232.582Z" fill="#843D3A"/>
<path d="M117.6 228.035C117.6 228.035 123.213 230.223 125.138 231.124C125.138 231.124 133.518 231.982 136.885 232.983C140.251 233.984 141.1 238.495 141.927 243.386C142.754 248.276 149.059 254.825 150.978 258.222C152.896 261.618 151.998 265.664 151.726 266.501C151.455 267.337 152.568 270.19 151.17 271.956C149.772 273.722 148.959 272.814 148.182 272.371C147.404 271.928 147.162 270.383 147.162 270.383C146.117 270.196 145.11 269.839 144.181 269.325C143.375 268.696 144.181 268.689 142.205 268.038C140.711 267.632 139.302 266.959 138.047 266.051C136.935 265.228 130.609 254.232 126.579 250.707C122.549 247.182 115.296 245.953 115.296 245.953L117.6 228.035Z" fill="#DE6E5C"/>
<path d="M90.9903 179.702C90.9903 179.702 22.7797 179.702 11.8677 191.857C0.955702 204.011 7.01792 219.498 15.8046 224.681C24.5912 229.865 116.765 250.521 116.765 250.521L121.615 222.25L108.014 217.961L115.296 208.187L90.9903 179.702Z" fill="#843D3A"/>
<path d="M90.7905 182.319C90.7905 182.319 105.055 199.986 112.764 205.199C112.764 205.256 96.8527 203.611 90.7905 182.319Z" fill="#6B2C2C"/>
<path d="M35.8169 197.634C35.8169 197.634 47.6418 199.157 66.1351 203.104C84.6284 207.05 108.014 217.997 108.014 217.997C108.014 217.997 84.0222 201.588 65.2222 197.634C46.4222 193.68 35.8169 197.634 35.8169 197.634Z" fill="#6B2C2C"/>
<path d="M101.781 214.007C101.781 214.007 156.783 197.563 179.82 193.795C179.82 193.795 131.101 208.473 108.014 217.997L101.781 214.007Z" fill="#6B2C2C"/>
<path d="M154.808 180.89C154.808 180.89 128.141 194.081 119.147 207.458C119.169 207.458 147.276 193.044 154.808 180.89Z" fill="#6B2C2C"/>
<path d="M85.0922 157.188C85.0922 157.188 80.5919 146.141 69.9438 146.041L27.7722 174.726C26.3691 174.033 24.872 173.552 23.329 173.296C19.5347 172.581 12.0247 172.674 10.0777 172.324C9.14337 172.152 9.09344 172.617 9.49284 173.239C8.87235 172.981 7.88813 173.675 7.12501 174.805C5.92683 176.599 2.92425 179.881 2.92425 181.726C2.92425 183.57 6.19071 185.436 8.13775 185.522C8.13775 185.522 1.51211 187.202 0.292532 189.597C-0.927043 191.993 2.31803 191.635 3.3807 191.099C4.44337 190.563 11.2259 188.711 11.2259 188.711C11.2259 188.711 4.51469 192.429 4.33639 194.996C4.15809 197.562 6.47599 196.061 8.57994 194.996C10.6839 193.93 14.4995 191.985 14.4995 191.985C14.4995 191.985 9.02212 195.975 9.99208 197.741C10.962 199.507 15.4695 195.467 19.0925 193.816C22.7156 192.164 25.4472 191.921 28.5068 190.734C31.1459 189.653 33.4153 187.828 35.0397 185.479C42.5711 182.669 74.8863 170.079 85.0922 157.188ZM14.0573 181.275C11.0547 182.333 7.63851 181.275 7.1678 180.739C6.69708 180.203 10.0777 177.114 10.0777 174.719C10.0862 174.416 10.0452 174.114 9.95642 173.825C10.4926 174.39 11.1317 174.846 11.8393 175.169C13.7007 175.97 17.766 176.406 18.8286 177.028C19.8913 177.65 17.0599 180.21 14.0573 181.275Z" fill="#DE6E5C"/>
<path d="M223.981 120.831C223.981 120.831 227.825 132.585 225.193 141.344C222.562 150.102 212.513 152.068 212.513 152.068L214.132 150.045C214.132 150.045 224.031 148.372 224.587 134.745C225.086 122.669 223.981 120.831 223.981 120.831Z" fill="#42211F"/>
<path d="M19.3918 176.878C21.5652 178.042 23.9755 178.693 26.4383 178.78C30.1541 178.78 25.6823 180.453 22.9151 179.616C20.1478 178.78 19.3918 176.878 19.3918 176.878Z" fill="#C85346"/>
<path d="M31.0956 183.492C29.1749 183.694 27.3157 184.288 25.6324 185.237C22.4516 186.91 20.7827 191.164 19.9268 190.485C19.071 189.805 21.396 183.263 31.0956 183.492Z" fill="#C85346"/>
<path d="M9.12891 185.408C9.12891 185.408 16.0969 191.057 16.9313 191.128C17.7658 191.2 14.0571 185.716 9.12891 185.408Z" fill="#C85346"/>
<path d="M94.856 124.8C94.856 124.8 98.2936 122.998 108.771 122.998C119.247 122.998 136.692 127.102 136.692 127.102C136.692 127.102 104.484 127.266 94.856 124.8Z" fill="#FCCAB7"/>
<path d="M158.145 159.547L158.98 163.122L144.124 167.719C144.124 167.719 151.684 149.409 151.534 135.402C151.384 121.396 155.949 103.943 155.949 103.943L162.047 121.353C160.114 127.488 158.145 133.458 156.519 138.277C155.341 141.748 154.877 145.423 155.156 149.079C155.436 152.735 156.453 156.296 158.145 159.547Z" fill="#FCCAB7"/>
<path d="M234.879 203.054C234.108 200.473 227.911 197.584 227.911 197.584C229.836 197.863 233.395 196.648 233.738 194.832C234.08 193.016 231.741 189.212 230.885 187.246C230.343 186.002 229.501 185.137 228.845 185.273C229.358 184.736 229.394 184.264 228.438 184.257C226.463 184.257 219.103 182.756 215.237 182.749C214.015 182.732 212.793 182.84 211.593 183.07L183.343 143.246C181.781 133.515 179.627 108.877 177.081 97.9594C173.743 83.6599 166.319 79.7061 166.319 79.7061C166.319 79.7061 157.111 85.1971 155.571 95.8359C154.03 106.475 167.602 154.049 167.602 154.049C172.409 167.591 197.699 189.226 201.223 193.273C202.688 195.545 204.636 197.464 206.928 198.893C209.71 200.63 212.356 201.381 215.608 203.676C218.86 205.971 222.533 210.79 223.817 209.231C225.101 207.673 220.458 202.739 220.458 202.739C220.458 202.739 223.831 205.363 225.714 206.801C227.597 208.238 229.58 210.147 229.879 207.587C230.179 205.027 224.28 200.13 224.28 200.13C224.28 200.13 230.614 203.226 231.555 203.941C232.497 204.656 235.656 205.621 234.879 203.054ZM222.89 192.329C220.137 190.721 217.833 187.675 218.989 187.26C220.144 186.845 224.223 187.174 226.199 186.738C226.954 186.557 227.667 186.229 228.296 185.773C228.156 186.042 228.06 186.332 228.011 186.631C227.568 188.983 230.286 192.651 229.758 193.066C229.23 193.48 225.643 193.895 222.89 192.329Z" fill="#DE6E5C"/>
<path d="M218.097 187.604C215.924 188.768 213.513 189.418 211.051 189.505C207.335 189.505 211.807 191.178 214.574 190.342C217.341 189.505 218.097 187.604 218.097 187.604Z" fill="#C85346"/>
<path d="M203.976 192.607C205.897 192.805 207.757 193.399 209.439 194.352C212.62 196.025 214.289 200.279 215.145 199.593C216 198.906 213.69 192.379 203.976 192.607Z" fill="#C85346"/>
<path d="M225.094 196.469C225.094 196.469 218.126 202.117 217.291 202.189C216.457 202.26 220.165 196.776 225.094 196.469Z" fill="#C85346"/>
<path d="M116.523 74.358C116.523 74.358 113.214 80.6712 118.47 82.4015C123.726 84.1317 132.734 78.1116 137.313 73.7002C137.313 73.7002 131.258 83.4668 121.437 85.0254C111.616 86.5841 113.891 76.5029 116.523 74.358Z" fill="#FCCAB7"/>
</g>
<defs>
<clipPath id="clip0_15_3005">
<rect width="235" height="273" fill="white"/>
</clipPath>
</defs>
</svg>
