<svg width="178" height="58" viewBox="0 0 178 58" fill="none" xmlns="http://www.w3.org/2000/svg">
<path d="M53.8081 18.764H60.5761C63.2881 18.764 65.3521 19.508 66.7681 20.996C68.2081 22.484 68.9281 24.464 68.9281 26.936V36.8C68.9281 41.6 66.3841 44 61.2961 44H53.8081V18.764ZM64.9681 26.576C64.9681 25.256 64.6321 24.296 63.9601 23.696C63.3121 23.072 62.3041 22.76 60.9361 22.76H57.7681V40.364H60.7201C62.0161 40.364 63.0481 40.172 63.8161 39.788C64.5841 39.38 64.9681 38.504 64.9681 37.16V26.576Z" fill="#565656"/>
<path d="M89.1303 37.34C89.1303 39.764 88.3863 41.552 86.8983 42.704C85.4343 43.832 83.6703 44.396 81.6063 44.396C80.3103 44.396 79.0863 44.168 77.9343 43.712C76.7823 43.232 75.8343 42.464 75.0903 41.408C74.3703 40.352 74.0103 38.996 74.0103 37.34V25.748C74.0103 23.276 74.6823 21.404 76.0263 20.132C77.3943 18.86 79.2663 18.224 81.6423 18.224C84.0183 18.224 85.8543 18.896 87.1503 20.24C88.4703 21.584 89.1303 23.432 89.1303 25.784V37.34ZM85.1703 27.08C85.1703 26.072 85.0863 25.244 84.9183 24.596C84.7503 23.948 84.4023 23.444 83.8743 23.084C83.3463 22.7 82.5783 22.508 81.5703 22.508C80.5623 22.508 79.7943 22.688 79.2663 23.048C78.7383 23.408 78.3903 23.912 78.2223 24.56C78.0543 25.184 77.9703 26.012 77.9703 27.044V36.656C77.9703 37.808 78.2583 38.72 78.8343 39.392C79.4343 40.04 80.3463 40.364 81.5703 40.364C82.6983 40.364 83.5743 40.016 84.1983 39.32C84.8463 38.624 85.1703 37.712 85.1703 36.584V27.08Z" fill="#565656"/>
<path d="M112.572 41.66C113.364 41.564 114.012 41.264 114.516 40.76C115.02 40.256 115.272 39.368 115.272 38.096V36.08C114.072 36.68 112.812 36.98 111.492 36.98C109.86 36.98 108.42 36.668 107.172 36.044C105.924 35.396 104.952 34.484 104.256 33.308C103.584 32.108 103.248 30.716 103.248 29.132V18.8H107.208V28.772C107.208 30.26 107.568 31.352 108.288 32.048C109.008 32.744 110.076 33.092 111.492 33.092C112.284 33.092 112.932 33.008 113.436 32.84C113.964 32.672 114.324 32.504 114.516 32.336C114.732 32.168 114.984 31.94 115.272 31.652V18.8H119.232V38.384C119.232 40.28 118.824 41.756 118.008 42.812C117.192 43.868 115.8 44.492 113.832 44.684L112.572 41.66Z" fill="#565656"/>
<path d="M137.189 37.34C137.189 39.764 136.445 41.552 134.957 42.704C133.493 43.832 131.729 44.396 129.665 44.396C128.369 44.396 127.145 44.168 125.993 43.712C124.841 43.232 123.893 42.464 123.149 41.408C122.429 40.352 122.069 38.996 122.069 37.34V25.748C122.069 23.276 122.741 21.404 124.085 20.132C125.453 18.86 127.325 18.224 129.701 18.224C132.077 18.224 133.913 18.896 135.209 20.24C136.529 21.584 137.189 23.432 137.189 25.784V37.34ZM133.229 27.08C133.229 26.072 133.145 25.244 132.977 24.596C132.809 23.948 132.461 23.444 131.933 23.084C131.405 22.7 130.637 22.508 129.629 22.508C128.621 22.508 127.853 22.688 127.325 23.048C126.797 23.408 126.449 23.912 126.281 24.56C126.113 25.184 126.029 26.012 126.029 27.044V36.656C126.029 37.808 126.317 38.72 126.893 39.392C127.493 40.04 128.405 40.364 129.629 40.364C130.757 40.364 131.633 40.016 132.257 39.32C132.905 38.624 133.229 37.712 133.229 36.584V27.08Z" fill="#565656"/>
<path d="M152.735 43.712C152.639 43.76 152.411 43.844 152.051 43.964C151.691 44.084 151.295 44.18 150.863 44.252C150.455 44.324 149.999 44.36 149.495 44.36C148.151 44.36 146.903 44.108 145.751 43.604C144.599 43.1 143.663 42.308 142.943 41.228C142.247 40.148 141.899 38.804 141.899 37.196V25.892C141.899 24.212 142.163 22.868 142.691 21.86C143.243 20.828 144.023 20 145.031 19.376C146.087 18.776 147.383 18.476 148.919 18.476C150.791 18.476 152.483 18.872 153.995 19.664L152.807 23.228C152.159 22.988 151.595 22.82 151.115 22.724C150.635 22.628 150.107 22.58 149.531 22.58C148.379 22.58 147.479 22.796 146.831 23.228C146.183 23.636 145.859 24.416 145.859 25.568V37.268C145.859 38.42 146.159 39.224 146.759 39.68C147.383 40.136 148.283 40.364 149.459 40.364C150.371 40.364 151.139 40.148 151.763 39.716C152.411 39.26 152.735 38.456 152.735 37.304V36.98H150.683L149.423 33.2H156.695V44H152.951L152.735 43.712Z" fill="#565656"/>
<path d="M171.315 37.412H165.519L164.115 44H159.651L165.555 18.8H171.135L177.507 44H172.791L171.315 37.412ZM166.455 33.2H170.379L168.327 25.424L166.455 33.2Z" fill="#565656"/>
<path d="M34.1851 45.995C33.9692 45.589 33.8599 45.327 33.6498 44.9241C33.3518 44.3562 33.4218 44.7387 32.3718 42.9822C31.7473 41.9388 31.6442 41.0212 31.0447 37.0245C30.9711 36.5342 32.4771 33.169 32.8736 31.2329C33.1734 29.7646 32.9824 28.4957 33.2242 28.1555C33.5753 27.6625 33.6422 26.8925 34.2609 25.6159C34.6909 24.7286 36.1652 22.6247 37.4186 19.3312C37.779 18.3839 38.8304 15.9931 38.4535 15.3386C37.9753 14.5103 31.9181 10.1555 28.6614 7.39611C28.6007 6.8345 28.7506 6.87555 28.7729 6.63331C28.9986 4.06206 28.6837 4.35121 28.586 3.93169C28.4258 3.23701 28.6899 4.14281 27.999 1.85349C27.8147 1.24361 27.8477 1.18632 27.469 0.957167C27.2348 0.280523 27.2536 0.319317 27.2255 0.268795C26.9132 -0.294173 26.63 0.110009 26.4159 0.719891C26.3039 1.03927 26.1808 0.908449 25.9056 1.12588C25.3796 1.53998 24.9925 2.54232 24.8225 3.1504C24.802 3.22302 24.6922 3.45083 24.6418 3.60645C24.5638 3.84914 24.5682 4.01244 24.508 4.01244C24.3042 4.00432 24.2721 4.02372 24.1927 4.19964C24.1497 4.2975 24.1404 4.40709 24.1663 4.5109C24.7092 7.04471 24.657 6.67616 24.2667 6.97704C20.3132 10.0165 13.8099 13.1625 14.0316 15.0183C14.3354 17.5602 15.4742 20.3466 19.0905 27.0102C19.7288 28.1871 20.2503 30.1796 20.5309 31.4869C20.8302 32.8754 21.2508 33.9963 21.4288 35.1588C21.6777 36.7994 19.6945 40.4141 19.1895 42.0443C18.7395 43.4955 18.4013 43.9511 17.9454 44.7022C17.767 44.9959 17.5922 45.3031 17.5649 45.3306C17.4516 45.4451 17.043 45.8268 16.8869 45.8534C16.4047 45.4727 15.484 44.9444 15.2271 45.5056C15.0933 45.7997 14.8627 45.6017 13.9594 46.129C13.408 46.4506 13.6297 46.941 13.7528 47.434C13.7426 47.434 6.88917 46.2693 2.32766 47.5648C0.0161326 48.2216 -0.73505 50.1226 0.811028 52.2008C2.96287 55.095 14.4982 56.4902 16.6269 56.3666C17.1242 56.3378 16.8994 56.405 18.7609 56.2872C19.0642 56.2678 19.9305 56.1334 20.7949 56.2164C21.6871 56.3017 24.1851 57.2169 24.8337 57.2679C27.1728 57.4515 29.9487 56.811 35.8377 56.1262C40.9006 55.5371 43.8001 55.5574 47.3521 54.0512C51.5644 52.2621 51.5198 48.8581 49.4647 48.1062C48.2603 47.665 42.9218 46.9843 40.6147 47.1395C39.2702 47.2297 39.3488 47.2676 39.198 47.1882C38.2309 46.6821 37.4637 46.8097 36.8062 46.8241C36.0692 46.8399 35.819 46.5485 34.8385 46.0573C34.6793 45.9797 34.5994 45.995 34.1851 45.995ZM17.6671 15.6462C18.8559 14.7061 17.6274 15.7698 20.1102 12.8562C20.5831 12.3009 20.6553 12.4272 22.3406 10.9643C26.5055 7.34965 24.5223 9.03765 25.7013 8.13997C26.32 7.66902 26.2811 7.56753 26.4386 7.6997C30.2025 10.852 33.077 15.0075 34.3711 15.7432C34.5 15.8163 34.7279 15.9746 34.7814 16.1244C34.5879 16.7676 34.4067 17.4118 34.0677 18.0487C31.2294 23.3717 30.4746 26.0985 29.9331 25.6028C29.6744 25.366 29.3711 25.4467 28.9112 25.5478C28.5311 25.6312 28.267 25.0516 28.2385 24.5959C28.1979 23.945 28.5061 22.954 28.7229 22.3784C28.8866 21.9462 29.0214 22.225 29.8493 20.7792C30.0843 20.8158 30.1677 20.7761 30.2565 20.5902C30.3872 20.315 30.2909 20.1536 30.1816 19.8234C30.5335 19.4083 30.8324 18.2328 30.3738 17.8706C30.3582 17.6901 30.3448 17.5201 30.327 17.3491C30.3034 17.1186 30.2168 17.2268 30.2775 16.9747C30.5866 15.6895 30.0745 13.8729 28.5133 12.7687C28.4548 12.7276 28.4009 12.6784 28.3478 12.6378C28.3924 12.3433 28.3032 12.1268 28.0547 11.9833C27.8513 11.8656 28.5168 11.4163 27.9111 10.7559C27.1858 9.9651 25.2918 9.66648 24.9251 10.7856C24.6383 11.6608 24.9162 11.6937 24.744 11.7975C24.5946 11.8877 24.6137 12.0289 24.6316 12.1931C24.6472 12.3397 24.649 12.3388 24.4558 12.4362C23.354 12.9933 22.4931 14.2068 22.4699 15.81C22.4574 16.6878 22.6604 16.8091 22.5565 17.1181C22.4293 17.4948 22.5953 17.6279 22.7599 17.8367C22.693 17.9468 22.428 18.0785 22.5047 18.554C22.5435 18.7967 22.7385 19.4683 22.9463 19.5983C23.4343 19.9032 22.411 20.1896 23.0066 20.8433C23.1288 20.9786 23.2354 20.8934 23.3857 20.8144C23.4941 20.9687 23.3759 20.7657 23.7158 21.4202C24.7502 23.4123 24.6842 22.0518 24.5607 24.0122C24.529 24.5129 24.6021 24.568 24.3773 24.9879C24.2355 25.2532 23.9571 25.25 23.6128 25.2135C22.7956 25.1233 23.1154 25.9186 22.0805 25.1882C20.6754 24.1954 17.7385 15.9209 17.6671 15.6462Z" fill="#FF8181"/>
</svg>
