<svg width="130" height="130" viewBox="0 0 130 130" fill="none" xmlns="http://www.w3.org/2000/svg">
<g clip-path="url(#clip0_26_99)">
<path d="M130 109.43C129.834 109.86 129.661 110.29 129.502 110.72C128.348 113.648 125.44 115.09 122.258 114.298C118.408 113.343 114.593 112.199 110.703 111.444C104.592 110.263 98.5156 110.726 92.4862 112.301C90.3229 112.869 88.102 113.208 85.9388 113.773C85.1043 113.987 84.3348 114.402 83.6976 114.982C76.5645 121.895 68.1247 124.512 58.5406 121.905C48.8278 119.264 42.6765 112.764 40.0867 102.991C39.9614 102.52 39.6635 101.897 39.2742 101.721C35.144 99.8423 33.1804 96.3824 32.2867 92.1878C31.5385 88.667 32.2291 85.5592 35.276 83.2368C35.6145 82.9795 35.7499 82.2821 35.7567 81.7878C35.7973 78.2738 35.7567 74.7631 35.7838 71.249C35.8718 60.6933 42.8255 52.267 53.1882 50.2019C54.5153 49.9506 55.8629 49.8237 57.2135 49.8227C62.4575 49.7821 67.7083 49.7923 72.9523 49.8227C75.7739 49.8079 78.5704 50.3527 81.1801 51.4255C83.7899 52.4984 86.161 54.078 88.1563 56.0731C90.1517 58.0681 91.7317 60.439 92.805 63.0485C93.8782 65.6581 94.4234 68.4545 94.4091 71.2761C94.4091 74.8714 94.3921 78.4701 94.4328 82.0654C94.4171 82.5504 94.5879 83.0229 94.9101 83.3858C97.7809 85.7217 98.4309 88.7618 97.7098 92.1878C96.8567 96.2503 94.9846 99.6358 91.0846 101.572C90.784 101.708 90.5432 101.949 90.4075 102.249C89.6052 104.636 88.8468 107.043 88.0377 109.579C88.7622 109.426 89.5713 109.298 90.3533 109.081C96.4065 107.388 102.571 106.549 108.8 107.503C113.086 108.16 117.288 109.376 121.523 110.344C122.058 110.466 122.583 110.642 123.117 110.76C125.216 111.224 126.625 109.802 126.1 107.713C125.596 105.702 125.084 103.698 124.478 101.714C122.173 93.9652 121.574 86.1415 123.124 78.1519C124.042 73.3818 123.855 68.5509 122.962 63.7639C121.608 56.4209 122.217 49.2066 124.289 42.0634C124.902 39.9542 125.44 37.8248 125.981 35.6988C126.686 33.0209 125.325 31.6667 122.664 32.337C118.733 33.329 114.833 34.4868 110.852 35.218C104.308 36.4232 97.8013 35.8477 91.3757 34.1787C80.1632 31.2639 68.751 30.7933 57.2507 31.3857C50.9547 31.6794 44.7042 32.6061 38.5937 34.1516C37.1989 34.5105 36.2442 33.9891 36.0005 32.8584C35.7567 31.7277 36.339 30.966 37.6932 30.6139C43.9441 28.926 50.3696 27.9683 56.8411 27.76C63.4697 27.5907 70.1322 27.5704 76.7372 28.0613C81.9564 28.4934 87.131 29.3551 92.2085 30.6376C100.171 32.574 108.005 32.6688 115.873 30.3735C117.941 29.7743 120.023 29.2225 122.115 28.6808C125.775 27.7634 128.622 29.4053 129.76 33.0446C129.822 33.2098 129.903 33.3676 130 33.5152V35.2925C129.347 37.598 128.73 39.9136 128.033 42.2055C125.829 49.4436 125.291 56.7628 126.706 64.2107C127.666 68.9952 127.666 73.9227 126.706 78.7071C124.587 88.7584 127.044 98.2105 130.01 107.642L130 109.43ZM39.6635 71.8279C39.7894 71.7113 39.9028 71.582 40.002 71.442C42.0333 67.2373 45.4187 65.3855 50.0026 65.416C56.0963 65.4566 62.1901 65.416 68.2838 65.4329C68.8315 65.4084 69.3797 65.4689 69.9088 65.6123C70.7348 65.8831 71.2799 66.4553 71.1546 67.4235C71.0294 68.3917 70.5723 69.1162 69.5364 69.2652C69.1158 69.3076 68.6925 69.3178 68.2703 69.2956C62.0072 69.2956 55.7442 69.2787 49.488 69.2956C45.6354 69.2956 43.1268 71.8212 43.0997 75.6467C43.0997 77.9725 43.0997 80.3016 43.0997 82.6274C43.0997 84.6587 42.602 85.136 40.6013 85.2917C38.9559 85.417 37.3986 85.8199 36.3999 87.2891C34.2976 90.38 37.314 97.5943 40.994 98.3053C41.0356 98.3086 41.0775 98.3086 41.1192 98.3053C42.5479 98.3764 43.1505 99.1821 43.3841 100.55C45.9299 116.614 64.5057 124.485 77.8002 115.107C82.7666 111.607 85.8338 106.833 86.8664 100.827C87.1169 99.3683 87.6348 98.4373 89.2361 98.1699C89.9606 98.048 90.6919 97.4928 91.2505 96.941C92.902 95.328 93.9398 93.19 94.1856 90.8946C94.5986 87.5092 93.0955 85.6946 89.7033 85.2884C87.5536 85.0311 87.2388 84.6756 87.2252 82.4615C87.2252 80.0917 87.2726 77.7219 87.1947 75.3522C87.0796 71.767 84.6151 69.3769 81.0367 69.2753C80.2343 69.255 79.4049 69.3769 78.633 69.211C77.9929 69.0979 77.4122 68.7651 76.9911 68.2699C76.0838 66.9394 76.9708 65.4972 78.721 65.416C80.2682 65.3415 81.8221 65.416 83.5317 65.416C83.4541 64.9421 83.341 64.4747 83.1932 64.0178C81.5309 59.8808 78.8429 56.5868 74.97 54.349C74.2048 53.9202 73.3452 53.6876 72.4682 53.6719C67.3539 53.6088 62.2363 53.602 57.1153 53.6516C52.9106 53.6855 49.1122 54.9821 45.8994 57.7141C41.6406 61.3805 39.5281 66.0152 39.6635 71.8279Z" fill="#FF8181"/>
<path d="M0 33.5157C0.0981771 33.2854 0.220052 33.0654 0.294531 32.8386C1.31016 29.5615 4.30286 27.8519 7.64089 28.6677C11.6594 29.6292 15.6372 30.8073 19.6964 31.5657C22.4047 32.0667 25.2451 31.9516 28.0245 32.1073C28.2784 32.1073 28.5323 32.0701 28.7862 32.0769C29.9846 32.1006 30.8174 32.8284 30.8682 33.861C30.8759 34.1177 30.8291 34.3731 30.731 34.6104C30.6328 34.8477 30.4855 35.0615 30.2987 35.2377C30.1119 35.414 29.8899 35.5486 29.6473 35.6328C29.4047 35.7171 29.147 35.7489 28.8911 35.7263C25.3906 35.5841 21.8529 35.6078 18.4133 35.0492C14.6893 34.4433 11.0297 33.2685 7.34635 32.324C4.68203 31.6469 3.31094 33.0011 3.99141 35.6485C4.97656 39.4943 6.06667 43.3164 6.90286 47.1961C8.00867 52.3386 8.09264 57.6483 7.15 62.8232C6.175 68.2839 6.00234 73.7412 7.03151 79.2188C8.40937 86.5584 7.7763 93.7761 5.71458 100.916C5.08151 103.106 4.51615 105.317 3.94401 107.524C3.34141 109.86 4.73958 111.272 7.06875 110.703C11.419 109.664 15.7388 108.438 20.1297 107.622C25.0792 106.705 30.076 107.047 35.0255 107.961C36.3797 108.211 36.9823 108.977 36.813 110.128C36.6607 111.167 35.7297 111.847 34.5516 111.607C26.6771 109.979 19.0023 110.957 11.419 113.3C10.2917 113.638 9.14062 113.923 7.99297 114.214C4.23177 115.165 1.40495 113.567 0.240365 109.853C0.171354 109.706 0.0909896 109.565 0 109.43L0 107.656C0.656771 105.354 1.27969 103.042 1.9737 100.75C4.15391 93.5526 4.7125 86.2841 3.30755 78.8498C2.34106 74.025 2.34106 69.0564 3.30755 64.2315C5.41667 54.1667 2.93516 44.7214 0 35.2862V33.5157Z" fill="#FF8181"/>
<path d="M106.536 45.1482C104.013 45.1482 101.86 45.1482 99.7072 45.1482C99.2502 45.1482 98.6713 45.2125 98.3531 44.9756C97.8351 44.5828 97.1614 43.9599 97.1614 43.442C97.1614 42.924 97.8554 42.3248 98.3768 41.9355C98.6984 41.6985 99.2705 41.7425 99.7309 41.7391C103.028 41.7391 106.332 41.6748 109.627 41.7696C110.375 41.7899 111.384 42.1284 111.783 42.6769C112.392 43.5131 111.979 44.5151 111.289 45.331C108.472 48.6555 105.666 51.989 102.869 55.3315C102.602 55.6498 102.355 55.9815 101.921 56.5334C102.598 56.574 103.018 56.6248 103.451 56.6248C105.649 56.6248 107.853 56.6248 110.05 56.6248C111.404 56.6417 112.179 57.2815 112.179 58.2904C112.179 59.2993 111.438 59.9289 110.046 59.9425C106.366 59.9696 102.683 59.9425 99.0031 59.9425C98.0788 59.9425 97.0395 60.0203 96.596 58.9573C96.1525 57.8943 96.5317 57.0073 97.2731 56.1644C99.9814 52.9854 102.69 49.7761 105.398 46.5769C105.699 46.2112 106.001 45.8151 106.536 45.1482Z" fill="#FF8181"/>
<path d="M108.672 24.6493C110.768 24.6493 112.454 24.6493 114.136 24.6493C115.033 24.6493 115.775 24.8254 115.768 25.9324C115.761 27.0395 114.979 27.1749 114.106 27.1749C111.397 27.1749 108.689 27.2155 105.981 27.1376C105.398 27.1207 104.467 26.7652 104.339 26.3624C104.169 25.8275 104.44 24.9337 104.84 24.4665C106.671 22.3439 108.601 20.3126 110.487 18.2814C110.646 18.1053 110.768 17.8954 111.076 17.4723H107.49C107.067 17.4723 106.644 17.4723 106.221 17.4723C105.398 17.452 104.792 17.0931 104.742 16.2298C104.691 15.3665 105.287 14.896 106.099 14.896C108.848 14.8655 111.597 14.8418 114.346 14.9197C114.773 14.9197 115.463 15.4275 115.534 15.7965C115.616 16.3976 115.455 17.0065 115.087 17.4892C113.395 19.4798 111.58 21.3892 109.816 23.3324C109.512 23.6473 109.231 23.9993 108.672 24.6493Z" fill="#FF8181"/>
<path d="M95.4418 9.04575C94.3925 9.10008 93.3408 9.08651 92.2933 9.00513C91.8261 8.94419 91.1118 8.48716 91.0509 8.11815C90.9121 7.30903 91.623 7.13638 92.3238 7.13976C94.1418 7.13976 95.9597 7.10591 97.7743 7.17023C98.2009 7.17023 98.8339 7.45799 98.9694 7.77961C99.0194 8.01235 99.0165 8.25338 98.9609 8.48486C98.9052 8.71633 98.7982 8.93232 98.6478 9.11685C97.4493 10.5387 96.1662 11.8861 94.9238 13.2674C94.653 13.5653 94.4058 13.8869 93.9082 14.4793H97.8386C98.492 14.4793 99.1928 14.4793 99.2233 15.3731C99.2537 16.2668 98.5157 16.3075 97.8691 16.3142C95.9259 16.3346 93.9793 16.3549 92.036 16.2973C91.5892 16.2973 90.8173 16.0231 90.7733 15.7726C90.7346 15.4974 90.7505 15.2174 90.8202 14.9484C90.89 14.6794 91.012 14.4268 91.1795 14.2051C92.5946 12.5463 94.1079 10.9687 95.5806 9.3606L95.4418 9.04575Z" fill="#FF8181"/>
<path d="M64.9593 105.642C62.6551 105.69 60.4036 104.95 58.5778 103.543C57.464 102.694 57.2236 101.6 57.9007 100.703C58.5473 99.8565 59.6205 99.799 60.7207 100.547C63.5205 102.46 66.476 102.47 69.2249 100.578C70.3895 99.7787 71.4931 99.8498 72.1262 100.767C72.7593 101.685 72.4648 102.727 71.3543 103.597C69.5107 104.974 67.2595 105.694 64.9593 105.642Z" fill="#FF8181"/>
<path d="M75.9721 93.1731C74.8026 93.1785 73.6583 92.8338 72.6864 92.1834C71.7144 91.533 70.9593 90.6067 70.5182 89.5236C70.051 88.2947 70.3861 87.2757 71.4018 86.8424C72.4174 86.4091 73.2705 86.795 73.8528 87.9697C74.3031 88.8838 74.926 89.4762 75.9924 89.4661C77.0588 89.4559 77.6614 88.8432 78.1083 87.9291C78.6736 86.7781 79.5877 86.4192 80.583 86.8525C81.5783 87.2859 81.9169 88.3184 81.4395 89.5338C80.9933 90.6152 80.2347 91.5391 79.2609 92.1873C78.287 92.8356 77.142 93.1788 75.9721 93.1731V93.1731Z" fill="#FF8181"/>
<path d="M54.2952 93.173C53.1497 93.1631 52.032 92.8185 51.0798 92.1815C50.1276 91.5445 49.3824 90.6429 48.9361 89.5878C48.4486 88.3589 48.7465 87.3298 49.7283 86.8795C50.7101 86.4292 51.6478 86.8016 52.2674 88.0305C52.7041 88.8972 53.3033 89.4626 54.2986 89.4761C55.3549 89.493 55.9913 88.9344 56.4517 88.0102C57.051 86.7915 58.0124 86.4055 59.0044 86.8863C59.9963 87.367 60.2739 88.3962 59.783 89.5946C59.3294 90.6703 58.5645 91.5858 57.5866 92.2235C56.6087 92.8611 55.4625 93.1918 54.2952 93.173Z" fill="#FF8181"/>
</g>
<defs>
<clipPath id="clip0_26_99">
<rect width="130" height="130" fill="white"/>
</clipPath>
</defs>
</svg>
