<svg width="130" height="130" viewBox="0 0 130 130" fill="none" xmlns="http://www.w3.org/2000/svg">
<g clip-path="url(#clip0_26_108)">
<path d="M0 49.0002C0.528125 46.969 1.04609 44.9377 1.58776 42.9065C3.82214 34.4869 6.95365 26.4398 11.4055 18.9208C12.5386 16.9728 14.1961 15.3822 16.1891 14.3302C20.1263 12.2109 24.3141 10.8093 28.6576 9.78356C30.2284 9.41455 31.3964 10.1932 32.0802 11.4052C33.4852 13.9002 34.7513 16.4833 35.9531 19.0799C36.4429 20.2501 36.8071 21.4689 37.0398 22.7159C37.4901 24.7268 36.5354 26.6869 34.5279 27.0289C31.9975 27.4305 29.4316 27.5622 26.8734 27.4216C25.4482 27.3606 24.2667 27.4588 23.0581 28.2341C19.7336 30.3635 17.8479 33.3393 17.4586 37.2664C17.3706 38.1263 17.2758 38.9862 17.1708 39.9747C17.4419 39.9142 17.7088 39.8361 17.9698 39.7411C24.5104 36.5791 31.068 36.9888 37.6052 39.7411C38.5701 40.144 39.4096 40.0797 40.4083 39.9002C43.0557 39.3856 45.737 39.064 48.4013 38.651C50.6932 38.3125 52.9818 37.9333 55.2669 37.5474C56.0964 37.4052 56.4958 36.8703 56.401 36.0138C56.3587 35.6346 56.3587 35.252 56.401 34.8729C56.4943 34.3376 56.4244 33.7866 56.2005 33.2915C55.9765 32.7964 55.6087 32.3802 55.1451 32.0968C53.2628 30.7427 52.3758 28.7114 52.1388 26.433C51.7732 22.9461 51.4617 19.4523 51.1232 15.9586C50.8936 13.8429 51.2447 11.7046 52.1388 9.7734C52.7279 8.53773 53.6825 8.10778 54.6779 8.58512C55.6122 9.03538 55.7714 9.96299 55.4565 11.1953C55.0977 12.607 54.7117 14.0864 54.7794 15.5151C54.9555 19.0562 55.3279 22.594 55.7341 26.1182C56.0388 28.769 57.7349 30.3635 60.3586 30.4448C63.4461 30.5395 66.5404 30.5429 69.6245 30.4448C72.1872 30.3601 73.9206 28.7521 74.2016 26.2062C74.6146 22.4823 75.0073 18.7211 75.2172 14.97C75.4643 10.5013 72.3497 7.06507 67.8674 6.75023C65.9716 6.61481 64.0622 6.71637 62.163 6.71976C61.7805 6.71976 61.4013 6.77731 61.0221 6.77731C60.0065 6.77731 59.3023 6.33043 59.1771 5.26403C59.0518 4.19762 59.5156 3.41898 60.5516 3.33434C64.3771 3.02627 68.2466 2.51168 71.9367 4.07236C76.6763 6.07991 79.432 11.0565 78.8227 16.2125C78.4638 19.397 78.1614 22.5928 77.9154 25.8C77.7021 28.576 76.6898 30.8984 74.3641 32.4929C73.5143 33.0752 73.6125 33.8268 73.6091 34.6156C73.6091 37.3239 73.5753 37.439 76.2159 37.9096C78.8565 38.3802 81.5818 38.5359 84.2562 38.9252C86.0536 39.1576 87.837 39.4876 89.5984 39.9138C90.5224 40.1926 91.5151 40.1362 92.4016 39.7547C98.1771 37.3172 104.058 36.7078 110.06 38.9252C110.493 39.0843 110.92 39.2638 111.35 39.4534L112.633 39.9984C112.887 35.0185 111.045 30.8273 107.054 28.3119C105.767 27.5028 104.521 27.3437 102.991 27.4757C100.723 27.6825 98.4389 27.6177 96.1865 27.2828C93.5052 26.8731 92.3508 24.8453 93.038 22.2284C93.9319 18.6962 95.3698 15.3246 97.3003 12.2346C98.9016 9.71585 99.8698 9.23851 102.68 10.1729C106.437 11.4187 110.145 12.844 113.791 14.3843C115.89 15.2679 117.399 16.9132 118.591 18.9242C123.977 28.0073 127.393 37.825 129.665 48.0828C129.758 48.4011 129.871 48.7131 130.003 49.0172V50.2901C129.424 52.6599 127.766 54.1901 125.778 55.27C122.857 56.8578 119.834 58.2729 116.797 59.6304C115.504 60.2093 114.471 59.7489 114.119 58.7909C113.703 57.6567 114.248 56.7596 115.717 56.2416C118.889 55.182 121.892 53.6725 124.634 51.7593C125.988 50.808 126.428 49.8093 126.032 48.12C123.767 38.4276 120.585 29.0974 115.328 20.5898C114.607 19.4218 113.51 18.22 112.298 17.675C108.885 16.1312 105.317 14.9294 101.82 13.5752C101.143 13.3078 100.696 13.5278 100.344 14.1169C98.5381 17.0863 97.202 20.3169 96.3828 23.6942C97.3984 23.8601 98.3294 24.1445 99.257 24.1343C100.775 24.1032 102.289 23.9721 103.79 23.7416C104.952 23.5274 106.152 23.7123 107.196 24.2664C112.768 27.1677 115.829 31.6737 116.245 37.9672C116.32 39.0606 116.526 40.144 116.682 41.2307C116.861 42.4664 116.557 43.5226 115.483 44.2234C114.41 44.9242 113.391 44.782 112.382 44.1286C106.502 40.3234 100.347 40.3471 94.101 42.9539C92.2818 43.7348 90.2486 43.8628 88.3458 43.3161C85.5393 42.6187 82.5906 42.4224 79.7096 42.1177C76.9607 41.8265 74.276 41.3763 71.737 40.2218C70.5961 39.7039 70.0849 38.9591 70.0917 37.6692C70.0917 34.0028 70.0612 34.0028 66.4388 34.0028C64.6615 34.0028 62.8841 34.0299 61.1068 34.0028C60.2469 33.9859 59.8643 34.3143 59.8982 35.1945C59.932 36.0747 59.8643 36.9718 59.8982 37.8588C59.9557 38.9862 59.431 39.6565 58.4424 40.1372C55.9677 41.339 53.3237 41.8468 50.6187 42.0906C47.1284 42.4054 43.6076 42.4698 40.2526 43.6648C38.8984 44.1422 37.6797 43.6817 36.4576 43.1604C31.6841 41.1291 26.799 40.3437 21.775 42.1143C20.3952 42.6428 19.0642 43.2908 17.7971 44.0507C16.6766 44.6838 15.5966 44.9614 14.4727 44.1997C13.3487 43.438 13.1422 42.3343 13.3419 41.0614C13.6635 39.0302 13.8362 36.9481 14.2391 34.9203C15.3359 29.3987 19.026 26.0369 23.8943 23.7856C24.5409 23.4843 25.4583 23.7619 26.2641 23.7856C28.363 23.8364 30.462 23.9211 32.5609 23.9312C33.3667 23.9312 33.7154 23.4843 33.3667 22.6718C32.1479 19.8484 30.9393 17.0182 29.7003 14.2083C29.4057 13.5312 28.8945 13.3145 28.1464 13.6023C24.7609 14.9057 21.3484 16.138 17.9901 17.4854C16.4599 18.0981 15.4003 19.283 14.5404 20.7218C9.28281 29.5239 5.99896 39.0877 3.81198 49.0578C3.5987 50.026 4.03203 50.6591 4.73281 51.2414C7.98958 53.9497 11.7846 55.5612 15.793 56.719C22.6383 58.6994 29.6732 59.2411 36.7453 59.2208C37.3362 59.1903 37.9283 59.1903 38.5193 59.2208C38.7335 59.2243 38.9448 59.2716 39.14 59.36C39.3352 59.4483 39.5102 59.5757 39.6543 59.7344C39.7983 59.893 39.9083 60.0795 39.9774 60.2823C40.0466 60.4851 40.0734 60.6999 40.0562 60.9135C40.0733 61.1268 40.0478 61.3413 39.9813 61.5446C39.9147 61.7479 39.8084 61.936 39.6686 62.0979C39.5287 62.2598 39.3581 62.3923 39.1666 62.4877C38.9751 62.5831 38.7666 62.6395 38.5531 62.6536C37.8117 62.7687 37.0534 62.7518 36.1089 62.8026C36.3052 63.6185 36.4237 64.3057 36.6336 64.9659C38.0622 69.482 40.0901 73.6935 43.0659 77.4106C44.3014 78.94 44.9466 80.8622 44.8839 82.8273C44.8534 86.6765 44.9109 90.5291 44.8534 94.3817C44.8534 95.4515 45.2156 95.763 46.2414 95.7596C58.7652 95.7393 71.2912 95.7393 83.8195 95.7596C84.8352 95.7596 85.2211 95.4448 85.2076 94.375C85.15 90.5664 85.2075 86.7578 85.1737 82.9492C85.1105 80.905 85.7833 78.906 87.0695 77.3159C90.157 73.4226 92.2391 69.0013 93.6271 64.2448C93.7083 63.9604 93.776 63.6726 93.837 63.3815C93.8503 63.1989 93.8503 63.0156 93.837 62.833L91.87 62.701C90.675 62.6198 89.9708 61.9596 89.981 60.9203C89.9911 59.881 90.6581 59.2513 91.9039 59.2039C95.9156 59.0515 99.9307 58.9161 103.942 58.7401C104.958 58.6961 105.957 58.4963 106.966 58.4252C108.032 58.3507 108.79 58.7638 108.933 59.925C109.065 60.9981 108.465 61.7836 107.284 61.9122C104.511 62.2101 101.735 62.4776 98.9557 62.6705C98.0992 62.7281 97.676 62.9854 97.456 63.8351C95.9828 69.6749 93.3332 75.1525 89.6695 79.9328C89.1635 80.6498 88.8862 81.503 88.874 82.3804C88.8096 88.5148 88.7047 94.656 88.874 100.787C88.9891 104.579 89.5781 108.357 89.9776 112.142C90.4211 116.343 90.8984 120.541 91.3318 124.746C91.457 125.92 90.7326 126.838 89.7068 126.929C88.681 127.021 87.8651 126.289 87.7297 125.047C87.2783 120.984 86.845 116.908 86.4297 112.819C85.9964 108.573 85.5969 104.325 85.1331 100.083C85.0992 99.795 84.7065 99.4768 84.4018 99.3109C84.175 99.1857 83.8229 99.2737 83.5284 99.2737C71.2145 99.2737 58.9017 99.2669 46.5901 99.2534C45.4458 99.2534 44.9448 99.4159 44.8195 100.78C44.0747 108.814 43.1878 116.837 42.3482 124.867C42.1992 126.266 41.3833 127.065 40.2763 126.922C39.1693 126.78 38.5836 125.788 38.7461 124.421C39.501 117.406 40.5031 110.402 40.9128 103.367C41.3258 96.237 41.1734 89.0768 41.187 81.9302C41.1175 81.1352 40.8068 80.3805 40.2966 79.7669C36.7239 75.1273 34.1355 69.8075 32.6896 64.133C32.3951 63.0057 31.8839 62.7112 30.7768 62.6604C22.5638 62.288 14.5505 60.9677 7.17031 57.0778C5.64349 56.2755 4.24531 55.226 2.79974 54.2713C1.35417 53.3166 0.507812 51.8846 0 50.2731V49.0002Z" fill="#FF8181"/>
<path d="M65.0474 47.6096C66.6047 46.0997 68.2195 45.2567 70.1695 45.1382C71.5 45.057 72.3802 45.6765 72.4547 46.7768C72.5224 47.7924 71.7979 48.5169 70.5216 48.6827C68.2364 48.9807 66.8586 50.4364 66.7705 52.7452C66.713 54.1841 66.7705 55.6228 66.7502 57.065C66.7502 58.6697 66.1442 59.5262 65.0338 59.5533C63.9234 59.5804 63.2599 58.6934 63.2497 57.0041C63.2497 55.6499 63.2734 54.2958 63.2497 52.9416C63.1888 50.4736 61.8617 49.0179 59.4276 48.6895C58.1817 48.5236 57.4539 47.7585 57.5588 46.7294C57.5735 46.4716 57.6465 46.2205 57.7721 45.9949C57.8977 45.7693 58.0728 45.5752 58.2843 45.4269C58.4957 45.2787 58.7379 45.1803 58.9928 45.1391C59.2477 45.0979 59.5086 45.115 59.756 45.189C61.2354 45.5546 62.6437 46.2351 64.0588 46.8309C64.4204 47.0469 64.7527 47.3086 65.0474 47.6096V47.6096Z" fill="#FF8181"/>
<path d="M70.0374 124.34C70.0374 124.509 70.0577 124.678 70.0611 124.848C70.0611 126.087 69.4991 126.811 68.4699 126.879C67.4408 126.947 66.7163 126.266 66.5775 125.098C66.3913 123.548 66.239 121.994 66.0798 120.443C66.0121 119.732 65.9106 119.015 65.0067 119.008C64.1028 119.001 63.991 119.715 63.9199 120.426C63.7676 121.98 63.6085 123.534 63.4223 125.085C63.2835 126.256 62.5387 126.947 61.54 126.879C60.5413 126.811 59.8676 126.073 59.9522 124.848C60.0876 122.871 60.2332 120.887 60.5345 118.93C60.8561 116.817 62.9043 115.291 65.1218 115.338C67.2546 115.382 69.1843 116.963 69.4889 119.038C69.7496 120.792 69.8884 122.559 70.0814 124.323L70.0374 124.34Z" fill="#FF8181"/>
<path d="M72.4478 64.5596C73.4634 64.5596 74.2252 65.2367 74.2861 66.4148C74.4825 70.3825 76.4663 73.0265 80.0921 74.5398C81.233 75.0137 81.6392 75.9143 81.2668 76.8486C80.8538 77.888 79.889 78.2841 78.6228 77.7796C74.3775 76.0869 71.7978 72.9689 70.9007 68.4833C70.7588 67.8233 70.6839 67.1507 70.6772 66.4757C70.6942 65.3382 71.4525 64.5731 72.4478 64.5596Z" fill="#FF8181"/>
<path d="M59.3125 67.0313C58.8521 71.7709 56.4992 75.4271 51.956 77.543C51.4719 77.7698 50.8354 78.061 50.4021 77.9222C49.7656 77.7156 48.9667 77.2451 48.7568 76.6966C48.5773 76.2159 49.0581 75.4339 49.3695 74.8482C49.4982 74.6078 49.9416 74.53 50.2497 74.3912C53.5844 72.888 55.4497 70.3557 55.6664 66.669C55.7578 65.2607 56.5127 64.4685 57.6536 64.5633C58.7336 64.6615 59.3802 65.5485 59.3125 67.0313Z" fill="#FF8181"/>
<path d="M66.7436 83.2034C66.7436 84.8115 66.7673 86.4195 66.7436 88.0242C66.7199 89.2531 66.0665 89.9099 64.9933 89.8997C63.9201 89.8896 63.3006 89.2227 63.2735 87.9904C63.2509 84.8171 63.2509 81.6438 63.2735 78.4706C63.2735 77.2552 63.9506 76.5307 64.9662 76.5036C66.0394 76.4766 66.73 77.218 66.7537 78.5044C66.7673 80.0719 66.7436 81.6359 66.7436 83.2034Z" fill="#FF8181"/>
</g>
<defs>
<clipPath id="clip0_26_108">
<rect width="130" height="130" fill="white"/>
</clipPath>
</defs>
</svg>
