<svg width="130" height="130" viewBox="0 0 130 130" fill="none" xmlns="http://www.w3.org/2000/svg">
<path d="M32.3645 57.0984C30.1471 62.5726 27.7603 67.9825 25.7528 73.5278C22.7745 81.7785 21.1111 90.4459 20.8236 99.213C20.6137 104.995 22.0051 109.048 30.3028 110.673C32.1712 111.033 34.0705 111.209 35.9734 111.197C41.7997 111.164 47.3077 112.331 52.4502 115.121C55.8356 116.963 59.4614 117.806 63.3309 117.342C66.4793 116.959 69.6379 116.645 72.7661 116.143C80.4713 114.901 88.2069 113.872 96.0036 114.806C100.774 115.378 105.483 116.458 110.222 117.345C111.096 117.508 111.915 117.914 111.604 119.038C111.292 120.162 110.412 120.054 109.535 119.786C98.5223 116.573 87.3741 116.374 76.1075 118.181C71.7707 118.879 67.4002 119.377 63.033 119.874C59.1398 120.324 55.4666 119.488 51.9898 117.708C48.7431 116.042 45.4187 114.562 41.7489 114.146C39.8192 113.926 37.8726 113.831 35.9293 113.774C32.7403 113.679 29.6054 113.347 26.5721 112.284C20.9895 110.365 18.3015 106.641 18.2981 100.73C18.2981 90.3703 20.4241 80.4172 23.9653 70.7179C27.757 60.345 32.9333 50.6594 38.614 41.2344C42.04 35.5469 45.6218 29.9508 49.1325 24.3073C50.6898 21.8021 52.7176 19.7437 55.4395 18.5995C61.7093 15.969 68.0366 13.4773 74.3403 10.9349C77.4989 9.65857 80.5661 9.8617 83.6773 11.2734C87.7093 13.0812 91.5619 15.1599 95.0319 17.9088C95.7293 18.4607 96.3861 19.0633 97.026 19.6794C98.6984 21.2909 99.7851 23.0953 98.9895 25.5599C98.1702 28.1091 96.5012 29.7578 93.9114 30.3942C93.0041 30.6177 92.4692 30.9258 92.8957 31.9109C95.2655 37.5713 90.9187 41.495 85.9489 41.8607C83.8741 42.0433 81.8098 41.4107 80.1937 40.0969C78.0812 42.5987 75.4067 43.0693 72.4072 42.1281C71.6963 41.9047 70.8838 41.5898 70.4335 41.0515C69.6142 40.063 68.8051 40.2594 67.7692 40.5133C65.9236 40.9765 64.0514 41.3259 62.1629 41.5594C61.7502 41.6007 61.3502 41.726 60.9875 41.9274C60.6248 42.1288 60.3071 42.4022 60.0538 42.7307C56.7767 46.5935 55.0773 51.1164 54.2986 56.0659C53.6656 60.0451 53.9305 64.1155 55.0739 67.9791C56.2486 71.9909 56.7463 76.0838 55.2838 80.4206C56.34 80.0008 57.1762 79.6521 58.026 79.3305C61.6619 77.9763 65.2301 76.3682 68.9507 75.2916C75.4913 73.4026 81.927 74.5469 88.2882 76.5273C91.7921 77.614 95.3265 78.6364 98.9015 79.4625C102.321 80.2547 105.716 79.801 109 78.5586C109.274 78.4536 109.552 78.3419 109.833 78.2607C110.632 78.0304 111.279 78.1896 111.573 79.0427C111.642 79.2013 111.675 79.3737 111.667 79.5466C111.66 79.7196 111.614 79.8886 111.532 80.0409C111.449 80.1933 111.334 80.3249 111.193 80.4259C111.052 80.5268 110.891 80.5945 110.72 80.6237C108.53 81.2229 106.339 81.9778 104.098 82.2351C99.2299 82.7802 94.6392 81.2906 90.0892 79.7976C85.3497 78.237 80.5728 76.8015 75.4879 76.9031C71.1783 76.9877 67.153 78.1896 63.2463 79.8789C57.4911 82.3638 51.7088 84.7099 45.6015 86.1758C45.026 86.3146 44.4403 86.406 43.8681 86.5583C41.7793 87.1271 40.1442 86.5583 38.9424 84.7133C38.1197 83.4539 36.9111 82.8242 35.1981 83.0375L34.9171 85.4073C37.1616 86.213 39.2369 87.1575 39.3655 89.9607C39.484 92.5674 38.0114 94.101 35.8244 95.1302C36.8874 96.6672 38.658 96.701 39.6905 95.269C42.7374 91.0406 47.1892 89.8252 51.8984 92.1612C53.7831 93.116 55.548 94.2911 57.1559 95.6617C60.4533 98.4411 63.9843 100.442 68.4463 100.483C70.1395 100.527 71.8254 100.723 73.4838 101.068C76.3072 101.6 78.8192 100.564 81.3413 99.626C85.0653 98.2482 88.4067 96.2169 91.5991 93.8708C94.3616 91.8396 97.1444 89.8456 100.039 88.0208C103.008 86.1555 106.278 85.2177 109.857 85.7898C110.023 85.8169 110.195 85.8169 110.361 85.8474C111.157 85.9896 111.749 86.3823 111.641 87.2726C111.532 88.163 110.937 88.5083 110.09 88.3627C105.889 87.6349 102.382 89.2903 99.0775 91.5924C96.8262 93.1633 94.6189 94.795 92.3439 96.4302C94.3549 97.2867 95.6447 97.0599 97.2392 95.8716C98.5934 94.856 99.9476 93.7794 101.485 93.1633C102.729 92.6648 104.093 92.547 105.405 92.8247C108.695 93.6508 109.806 96.6502 108.113 99.5956C107.846 100.07 107.514 100.506 107.162 101.031C108.55 101.881 109.606 102.961 109.742 104.691C109.979 107.663 107.71 109.958 104.663 109.508C101.278 109.017 97.9231 108.313 94.602 107.507C77.2788 103.292 59.6814 101.623 41.8944 101.566C40.4252 101.566 39.3012 102.199 38.228 103.069C36.5793 104.423 34.7106 104.958 32.659 104.325C31.8905 104.088 30.9663 103.648 30.5905 103.005C29.9676 101.989 29.1382 101.606 28.0989 101.204C26.3588 100.527 25.5666 99.0539 25.5293 97.1919C25.3668 89.4833 26.0372 81.8729 28.539 74.5367C30.1064 69.9393 31.8804 65.3961 33.678 60.9002C34.1486 59.7221 34.3721 58.8013 33.3395 57.8838C33.1501 57.6625 32.9897 57.4179 32.8622 57.156L32.3645 57.0984ZM87.2455 31.7078C89.9335 31.6909 91.264 30.181 90.4379 27.8146C89.8371 25.9711 88.9207 24.246 87.7296 22.7161C85.2176 19.6354 82.3671 16.856 79.7366 13.8802C78.721 12.7325 77.7054 12.4211 76.3072 12.9898C69.6142 15.6982 62.884 18.3151 56.2114 21.0674C54.2207 21.8901 52.6804 23.4372 51.5598 25.262C46.0585 34.2875 40.6249 43.3333 35.1135 52.369C34.2231 53.8281 34.6734 55.0299 35.4859 56.4924C36.0377 55.2804 36.5015 54.2479 36.9788 53.2255C37.3174 52.4875 38.0215 52.1828 38.6377 52.6161C39.0304 52.8903 39.1692 53.6318 39.2708 54.187C39.3215 54.4612 39.0304 54.7997 38.9017 55.1112C36.7215 60.4263 34.4635 65.7143 32.3814 71.07C29.2359 79.2257 27.7622 87.9306 28.0481 96.6672C28.0718 97.5406 28.0853 98.4344 29.0096 98.8338C29.4282 98.9869 29.8894 98.9748 30.2994 98.8C30.5161 98.7018 30.6616 98.1534 30.6379 97.8284C30.3434 95.1539 31.315 93.7354 33.915 92.9906C34.6111 92.8285 35.2742 92.5479 35.8752 92.1612C37.4088 91.0406 37.1515 89.0669 35.408 88.3424C34.8671 88.118 34.2972 87.971 33.7153 87.9057C32.6556 87.7906 32.202 87.2286 32.3069 86.213C33.0619 78.8836 34.0674 71.5948 36.3965 64.57C37.0371 62.7364 37.818 60.9549 38.7325 59.2414C38.9322 58.8453 39.782 58.5135 40.2627 58.5914C41.0142 58.7133 41.2783 59.4039 41.0278 60.1859C40.9838 60.3247 40.9635 60.4703 40.933 60.5956C43.9096 61.5776 47.0746 61.8501 50.1752 61.3911C51.0283 61.2422 51.4921 60.9409 51.4921 59.9456C51.5154 58.5922 51.6285 57.2418 51.8306 55.9034C52.6161 50.0601 54.7523 44.8195 58.7538 40.3982C59.4308 39.6474 60.3645 39.1775 61.3707 39.0812C63.5002 38.7664 65.6161 38.3432 67.7184 37.876C67.9218 37.7942 68.1035 37.6663 68.2492 37.5024C68.3949 37.3385 68.5006 37.1431 68.558 36.9315C68.9168 34.8088 70.1491 33.5461 72.1702 32.9672C73.0437 32.7166 73.9205 32.5812 74.2489 33.6984C74.5773 34.8156 73.8359 35.1812 72.9116 35.3911C71.9874 35.601 71.2426 36.0885 71.1377 37.1245C71.0226 38.245 71.6726 38.9492 72.5866 39.4435C75.7351 41.1362 78.5721 39.4807 78.6127 35.9328C78.6127 35.6383 78.5924 35.3403 78.5687 35.0458C78.2538 31.4099 76.9911 28.0549 75.5015 24.7711C75.1257 23.9383 75.0241 23.1867 75.9788 22.7398C76.9335 22.2929 77.526 22.8922 77.8036 23.725C78.8835 26.9614 79.9398 30.2081 80.9385 33.4716C81.1619 34.1961 81.1213 35.0052 81.2093 35.8245C82.4451 35.2963 83.4644 34.3633 84.0993 33.1789C84.7343 31.9944 84.9472 30.6291 84.703 29.3075C84.3257 27.0426 83.3576 24.9173 81.8965 23.1461C81.3379 22.4318 81.0569 21.7005 81.8965 21.0505C82.7361 20.4005 83.3726 20.8948 83.9278 21.6057C86.1655 24.5612 87.4622 27.8315 87.2455 31.7044V31.7078ZM35.5062 80.407C38.1671 80.3664 39.9343 81.6596 41.3833 83.5927C41.5581 83.778 41.7735 83.9204 42.0125 84.0085C42.2516 84.0966 42.5078 84.1281 42.7611 84.1005C45.1512 83.5758 47.5007 82.8581 49.8908 82.3604C51.509 82.0219 52.3554 81.0435 52.8327 79.5844C53.0221 79.0709 53.1837 78.5477 53.3168 78.0169C54.3934 73.0302 52.4434 68.4565 51.4752 63.6729C47.4127 64.6107 43.5668 64.1028 39.6668 62.9552C37.4257 68.5276 36.427 74.337 35.5062 80.407ZM82.0387 102.27C82.2723 102.331 82.5025 102.399 82.7395 102.449C88.8332 103.777 94.927 105.134 101.055 106.407C102.58 106.705 104.128 106.875 105.682 106.915C106.597 106.949 107.115 106.275 107.199 105.354C107.284 104.433 106.922 103.722 106.058 103.455C105.368 103.258 104.647 103.191 103.932 103.255C103.069 103.32 102.382 103.201 102.151 102.277C101.921 101.353 102.605 101.116 103.221 100.672C104.284 99.9497 105.228 99.0656 106.018 98.0518C106.769 97.0362 106.404 96.1831 105.276 95.5398C104.78 95.2446 104.21 95.0964 103.633 95.1126C103.056 95.1288 102.495 95.3086 102.016 95.6312C100.723 96.429 99.487 97.3147 98.3158 98.282C97.7494 98.7819 97.0773 99.1472 96.3497 99.3506C95.6222 99.5541 94.858 99.5903 94.1145 99.4567C92.6148 99.2096 91.1015 99.0505 89.5916 98.8812C89.2642 98.8251 88.9278 98.8567 88.6166 98.9726C86.4195 100.046 84.2494 101.153 82.0387 102.27V102.27ZM33.0551 96.5148C33.1163 96.7937 33.1424 97.0792 33.133 97.3646C33.0348 98.2211 33.0517 99.1487 32.7098 99.9104C32.114 101.265 32.4119 102.108 33.8744 101.979C35.0275 101.841 36.1258 101.408 37.0635 100.723C38.6072 99.6023 40.2153 98.9896 42.1179 99.0539C44.315 99.1284 46.5189 99.1622 48.7127 99.1791C51.6918 99.1995 54.671 99.1791 57.5994 99.1791C55.2296 97.4864 53.0731 95.1877 50.0635 94.101C46.5833 92.862 43.8783 93.7117 41.803 96.6841C40.4489 98.6104 38.7562 99.3416 36.5286 98.5765C35.32 98.1771 34.2806 97.263 33.0551 96.5081V96.5148ZM83.9075 14.2492C87.4859 18.5013 91.8293 22.1778 93.2444 28.1497C94.0942 27.5979 94.8728 27.2492 95.4517 26.6872C96.9244 25.2586 97.114 23.3526 95.8851 22.0797C92.4895 18.5724 88.2882 16.2737 83.9075 14.2458V14.2492ZM82.4687 38.5463C84.2833 39.8429 87.32 39.5992 89.6051 37.8489C90.9864 36.7893 91.3385 35.3742 90.702 33.6747C89.3749 33.9456 88.058 34.2062 86.7512 34.494C86.5136 34.5478 86.2949 34.6648 86.1181 34.8325C84.9096 36.0411 83.7213 37.2666 82.4687 38.5429V38.5463Z" fill="#FF8181"/>
<path d="M61.4183 85.9688C64.0759 86.6121 66.73 87.279 69.3944 87.8917C70.2644 88.0915 70.9923 88.3759 70.8332 89.4287C70.6842 90.4207 69.8819 90.6272 69.0965 90.4071C65.3285 89.3441 61.5571 88.2743 57.8332 87.0691C56.7058 86.7069 56.6855 85.3358 57.8738 84.6993C60.0668 83.555 62.328 82.5466 64.6446 81.6795C65.9717 81.1785 67.4376 81.0397 68.8493 80.779C69.7261 80.6199 70.6504 80.6063 70.8162 81.7675C70.9821 82.9287 70.1832 83.1556 69.2488 83.2944C66.5405 83.6972 63.8694 84.2829 61.4048 85.5287L61.4183 85.9688Z" fill="#FF8181"/>
<path d="M83.7214 95.7832C83.5047 95.5936 82.9427 95.3363 82.8547 94.9673C82.7498 94.5238 83.0138 93.972 83.1933 93.4947C83.2474 93.3491 83.5318 93.278 83.7383 93.2069C87.1708 91.892 90.3849 90.0658 93.2716 87.7902C93.6322 87.5221 94.0812 87.4011 94.5276 87.4517C95.5433 87.6616 95.8242 88.9244 94.9745 89.6285C91.8163 92.2442 88.2304 94.2954 84.3748 95.6918C84.1594 95.7374 83.941 95.768 83.7214 95.7832V95.7832Z" fill="#FF8181"/>
<path d="M84.3442 80.5732C88.2577 81.4941 91.9444 82.354 95.6244 83.2376C96.491 83.4441 97.1546 83.9146 96.833 84.9303C96.5114 85.9459 95.77 85.8646 94.8762 85.6615C91.4705 84.8896 88.0478 84.199 84.6319 83.4813C84.466 83.4475 84.2934 83.4102 84.1343 83.3831C83.2812 83.2376 82.7598 82.7061 83.0442 81.8936C83.2168 81.379 83.8431 81.0404 84.3442 80.5732Z" fill="#FF8181"/>
<path d="M66.6928 96.9347C65.5181 96.5521 64.5634 96.3253 63.6798 95.936C61.3642 94.9203 59.0689 93.8472 56.7803 92.7638C56.0491 92.4253 55.6564 91.8328 56.1032 91.0102C56.5501 90.1875 57.1764 90.1841 57.9381 90.5125C60.9173 91.7956 63.9236 93.0279 66.8723 94.3821C67.1126 94.5417 67.3124 94.7551 67.4558 95.0055C67.5992 95.2558 67.6822 95.5362 67.6983 95.8242C67.6678 96.2136 67.0111 96.5894 66.6928 96.9347Z" fill="#FF8181"/>
<path d="M83.8296 90.1062C83.4572 89.6694 82.9291 89.3004 82.7768 88.8129C82.5364 88.041 83.0374 87.5502 83.7924 87.3707C85.3869 86.995 86.9882 86.6327 88.5828 86.2502C89.3546 86.064 90.0486 86.2806 90.1333 87.0627C90.1874 87.5468 89.7947 88.4168 89.4291 88.5455C87.7026 89.1481 85.8914 89.5543 83.8296 90.1062Z" fill="#FF8181"/>
</svg>
