<svg width="32" height="26" viewBox="0 0 32 26" fill="none" xmlns="http://www.w3.org/2000/svg">
<path d="M32 3.07824C31.12 4.39339 30.0059 5.54942 28.7225 6.47558C28.7352 6.75764 28.7411 7.04054 28.7411 7.32429C28.7411 15.9983 22.1398 26 10.064 26C6.35621 26 1.52421 24.7017 0 23.0514C0.514526 23.1129 1.03747 23.144 1.56632 23.144C4.64337 23.144 7.47368 22.0941 9.71958 20.3335C6.84716 20.2805 4.42274 18.3819 3.58653 15.7743C4.89347 15.9797 6.55158 15.6615 6.55158 15.6615C6.55158 15.6615 1.41811 14.7808 1.28505 9.14378C2.76968 10.0043 4.25853 9.9647 4.25853 9.9647C4.25853 9.9647 1.29768 8.14268 1.33895 4.50201C1.36337 2.35499 2.22653 1.20065 2.22653 1.20065C7.83579 8.10648 15.7583 8.05933 15.7583 8.05933C15.7583 8.05933 15.5882 7.07843 15.5882 6.56399C15.5882 2.94016 18.5272 0 22.1533 0C24.0413 0 25.7474 0.797345 26.9448 2.07377C28.4413 1.77824 29.8467 1.2318 31.1141 0.479922C30.5415 2.7726 28.2282 4.11133 28.2282 4.11133C28.2282 4.11133 30.2088 3.89242 32 3.07824Z" fill="#FF8181"/>
</svg>
