<svg width="16" height="28" viewBox="0 0 16 28" fill="none" xmlns="http://www.w3.org/2000/svg">
<path d="M12.2 5.6002H15.2C15.5312 5.6002 15.8 5.3314 15.8 5.0002V0.957995C15.8 0.643595 15.5582 0.381995 15.245 0.359795C14.2904 0.291995 12.4256 0.200195 11.0846 0.200195C7.39995 0.200195 4.99995 2.4082 4.99995 6.421V10.4002H0.799951C0.468751 10.4002 0.199951 10.669 0.199951 11.0002V15.2002C0.199951 15.5314 0.468751 15.8002 0.799951 15.8002H4.99995V27.2002C4.99995 27.5314 5.26875 27.8002 5.59995 27.8002H9.79995C10.1312 27.8002 10.4 27.5314 10.4 27.2002V15.8002H14.7332C15.0392 15.8002 15.296 15.5704 15.3296 15.2662L15.7963 11.0662C15.8359 10.711 15.5576 10.4002 15.2 10.4002H10.4V7.4002C10.4 6.406 11.2058 5.6002 12.2 5.6002Z" fill="#FF8181"/>
</svg>
