<svg width="28" height="28" viewBox="0 0 28 28" fill="none" xmlns="http://www.w3.org/2000/svg">
<path d="M8.60005 0.799805C4.29805 0.799805 0.800049 4.2978 0.800049 8.5998V19.3998C0.800049 23.7018 4.29805 27.1998 8.60005 27.1998H19.4C23.702 27.1998 27.2 23.7018 27.2 19.3998V8.5998C27.2 4.2978 23.702 0.799805 19.4 0.799805H8.60005ZM21.2 5.5998C21.86 5.5998 22.4 6.1398 22.4 6.7998C22.4 7.4598 21.86 7.9998 21.2 7.9998C20.54 7.9998 20 7.4598 20 6.7998C20 6.1398 20.54 5.5998 21.2 5.5998ZM14 7.3998C17.642 7.3998 20.6 10.3578 20.6 13.9998C20.6 17.6418 17.642 20.5998 14 20.5998C10.358 20.5998 7.40005 17.6418 7.40005 13.9998C7.40005 10.3578 10.358 7.3998 14 7.3998ZM14 8.5998C11.024 8.5998 8.60005 11.0238 8.60005 13.9998C8.60005 16.9758 11.024 19.3998 14 19.3998C16.976 19.3998 19.4 16.9758 19.4 13.9998C19.4 11.0238 16.976 8.5998 14 8.5998Z" fill="#FF8181"/>
</svg>
