<svg width="130" height="130" viewBox="0 0 130 130" fill="none" xmlns="http://www.w3.org/2000/svg">
<path d="M20.233 109.676C18.4723 109.676 16.7116 109.676 14.9461 109.676C14.4274 109.678 13.9097 109.634 13.4006 109.543C12.9759 109.496 12.5856 109.308 12.3054 109.014C12.0253 108.721 11.8753 108.344 11.8845 107.956C11.8348 107.57 11.9478 107.182 12.2009 106.869C12.454 106.555 12.8284 106.34 13.249 106.267C15.5428 105.748 17.8414 105.27 20.1449 104.8C22.6685 104.285 22.8886 104.272 23.1429 101.953C23.3867 99.5395 23.4422 97.1129 23.3092 94.6918C23.1185 90.4138 22.7321 86.1446 22.468 81.8709C22.3115 79.3085 23.2408 78.0717 25.9306 77.1629C32.1565 75.0526 38.3775 72.938 44.6229 70.8721C45.6891 70.5174 46.0902 70.0608 46.0412 68.9747C46.0021 67.6447 46.3689 66.3147 46.5303 64.9848C46.8193 63.3375 47.0071 61.6769 47.0928 60.0107C47.1082 58.9325 46.8329 57.8672 46.2907 56.9074C43.4394 52.155 44.9946 47.7218 50.4184 45.5052C52.0959 44.8136 53.7686 44.1131 55.4167 43.3728C55.7395 43.2309 56.1455 42.9073 56.1699 42.6369C56.1944 42.3664 55.7591 42.0827 55.451 41.9142C52.8882 40.5045 52.1693 38.8376 52.8687 36.2309C52.9929 35.5729 52.8958 34.8963 52.5899 34.2891C52.1938 33.4468 52.228 32.804 53.079 32.303C54.4141 31.5228 55.1575 30.3923 55.7787 29.0845C57.0894 26.3359 59.4711 24.8596 62.8066 24.7798C63.2041 24.8055 63.5996 24.7099 63.9302 24.5083C64.2607 24.3066 64.5074 24.0105 64.6308 23.6671C66.2888 20.0052 68.113 16.4054 69.6194 12.6948C70.2405 11.1654 70.1769 9.41425 70.4752 7.77395C70.9056 5.39774 72.4707 3.52249 74.0259 1.69156C74.7497 0.83595 75.9822 0.871415 77.0288 1.27484C77.5013 1.44274 77.9034 1.74123 78.1782 2.12796C78.4529 2.51469 78.5864 2.97003 78.5596 3.42939C78.567 3.72658 78.5408 4.02369 78.4813 4.31603C78.1732 5.86766 78.1683 5.86766 79.7676 6.46172C81.1859 6.98927 81.4255 8.77143 80.1882 9.82654C79.078 10.7664 77.8553 11.5998 76.8136 12.6017C76.153 13.2079 75.6428 13.9349 75.317 14.7341C73.8498 18.7994 72.4413 22.8957 71.0328 26.9831C70.622 28.1712 70.7785 28.3131 72.1381 28.1446C75.0432 27.7722 77.3271 29.0313 78.0901 31.4518C78.41 32.5131 78.2956 33.6436 77.768 34.6344C77.2403 35.6252 76.335 36.4096 75.2192 36.8426C74.9052 37.0057 74.5535 37.0998 74.1922 37.1175C72.5391 37.0288 71.7468 37.8401 71.1159 39.1302C70.673 40.0301 70.0313 40.8381 69.2306 41.5045C68.4298 42.1709 67.4869 42.6815 66.46 43.0048C65.2666 43.3994 64.8411 44.091 65.0221 45.319C65.1884 46.4716 65.4134 47.6154 65.6579 48.7547C66.0977 50.7001 65.6799 52.7242 64.4939 54.3938C64.0279 55.1609 63.5102 55.9012 62.9435 56.6104C60.2048 59.7137 60.5324 63.0741 61.9018 66.4655C62.2637 67.3521 63.1392 68.1501 63.9559 68.8062C65.8273 70.2445 67.2674 72.0882 68.1424 74.166C69.0437 76.4376 70.7123 78.3938 72.9108 79.7563C75.4393 81.3567 77.9189 83.0147 80.4181 84.6328C82.26 85.8086 84.3778 86.581 86.6048 86.8894C87.7492 87.0667 88.8937 87.2883 90.0283 87.3681C94.4984 87.6696 98.1078 89.7665 101.727 91.8634C104.832 93.6589 107.909 95.4499 111.572 96.2967C113.797 96.8021 114.677 98.4823 113.939 100.477C113.049 102.884 112.012 105.247 110.961 107.606C110.742 108.161 110.346 108.645 109.824 108.996C109.301 109.347 108.676 109.55 108.026 109.579C106.671 109.678 105.31 109.692 103.952 109.623C102.593 109.548 101.844 108.865 101.727 107.85C101.61 106.834 102.138 105.997 103.463 105.695C104.788 105.394 105.19 104.622 105.37 103.518C105.86 100.588 105.86 100.193 102.7 99.2714C100.255 98.5488 97.6383 98.2872 95.0706 97.9857C91.1825 97.5424 87.2748 97.2143 83.372 96.8331C81.0094 96.6355 78.7269 95.955 76.6962 94.8426C70.71 91.4777 64.6162 88.2504 58.8207 84.6461C56.5709 83.2452 54.6831 82.7886 52.0275 83.2763C46.3836 84.3092 40.6615 85.0008 34.9638 85.7811C34.4852 85.793 34.0295 85.9688 33.6882 86.2732C33.347 86.5776 33.1457 86.9878 33.1249 87.4213C32.45 91.2605 31.6577 95.0775 31.0121 98.9167C30.8382 100.286 30.7452 101.662 30.7333 103.04C30.6942 103.802 30.7333 104.565 30.704 105.327C30.567 108.138 28.9824 109.579 25.8622 109.672C23.9841 109.725 22.1012 109.672 20.2183 109.672L20.233 109.676ZM54.0033 81.3301C53.5046 80.8046 53.0548 80.2426 52.6584 79.6499C52.5365 79.2597 52.495 78.8524 52.5361 78.4485C52.9861 78.5593 53.5583 78.546 53.8664 78.7987C55.2994 79.9514 56.5661 81.2813 58.0626 82.3453C63.863 86.4948 70.2894 89.7754 76.6473 93.1269C79.2087 94.4923 82.0815 95.3068 85.0447 95.5076C85.3964 95.571 85.7616 95.5117 86.0672 95.3415C86.3727 95.1714 86.5962 94.9029 86.6928 94.5899C87.3042 93.2599 87.9791 91.9299 88.7176 90.6443C89.7642 88.8355 89.7887 88.7956 87.4802 88.5297C84.2418 88.1806 81.1644 87.0559 78.5645 85.2712C76.7109 84.0078 74.8671 82.7177 72.9255 81.5739C69.8818 79.8439 67.5684 77.2363 66.3573 74.1704C65.5601 72.171 64.0097 70.6238 62.1708 69.3604C61.6813 68.9972 61.0719 68.7928 60.4395 68.7796C56.6101 69.0589 52.7904 69.4136 48.9757 69.8037C48.7295 69.84 48.4947 69.9236 48.2872 70.049C48.0797 70.1744 47.9042 70.3387 47.7726 70.5307C47.5651 70.9016 47.275 71.2294 46.9206 71.4935C46.5662 71.7575 46.1552 71.952 45.7136 72.0646C39.2187 74.2428 32.7304 76.4328 26.2485 78.6347C24.5221 79.2243 23.9744 80.0666 24.082 81.7379C24.1553 82.8596 24.2629 83.9812 24.2874 85.1028C24.2874 86.0692 24.7764 86.7209 25.7839 86.9603C27.2071 87.3016 28.6499 87.5987 30.0926 87.8469C30.9534 88.0065 31.4963 87.6696 31.5598 86.8317C31.6234 85.9096 30.836 86.2288 30.3127 86.1002C29.8794 85.953 29.4646 85.7642 29.0754 85.5372C29.4666 85.2491 29.8188 84.7747 30.2491 84.7038C31.462 84.5043 32.7238 84.5397 33.9465 84.3669C40.1936 83.4802 46.4358 82.5773 52.6731 81.6581C53.1235 81.5738 53.5678 81.4642 54.0033 81.3301ZM63.7847 48.4267C63.4962 48.9719 63.3348 49.2424 63.2076 49.5261C62.1513 51.8358 59.6912 52.9175 57.2997 52.1594C56.7169 51.9633 56.1838 51.6627 55.7322 51.2755C55.2806 50.8883 54.9198 50.4225 54.6714 49.906C54.423 49.3894 54.2922 48.8328 54.2866 48.2694C54.2811 47.7059 54.401 47.1472 54.6391 46.6268C54.7922 46.1783 54.9099 45.7205 54.9913 45.2569C53.4898 45.8643 52.2916 46.3297 51.108 46.8218C46.633 48.6882 45.2734 52.0309 47.6845 55.9055C48.6718 57.5253 49.017 59.4029 48.6627 61.2254C48.3643 63.2026 48.1149 65.1843 47.8557 67.1659C47.7775 67.7334 47.7383 68.3496 48.6725 68.2698C52.2182 67.9683 55.7591 67.6403 59.3 67.3167C60.0336 67.2502 60.327 66.8733 60.0042 66.2793C59.0701 64.506 59.2657 62.5997 59.2217 60.7156C59.1658 59.626 59.5098 58.5503 60.1999 57.6566C61.2514 56.2823 62.2589 54.8814 63.1979 53.4495C63.7192 52.711 64.0429 51.8722 64.1431 51.0001C64.2433 50.128 64.1172 49.2467 63.775 48.4267H63.7847ZM55.9009 48.1607C55.9694 49.4685 56.6541 50.3773 57.9403 50.763C58.5324 50.9502 59.1764 50.9534 59.7707 50.7719C60.3649 50.5905 60.8756 50.2348 61.222 49.7611C61.538 49.2988 61.7816 48.799 61.9458 48.2759C65.5405 37.9243 69.2379 27.5994 72.6516 17.199C73.6884 14.0425 75.1605 11.387 78.1292 9.45415C78.5889 9.15269 78.8335 8.5675 79.1758 8.12418C78.583 8.06751 77.9865 8.04825 77.3907 8.06655C76.1582 8.17738 75.7376 7.79612 76.0458 6.69225C76.3634 5.79506 76.6295 4.88355 76.8429 3.96138C76.8644 3.72891 76.8231 3.49521 76.7225 3.28048C76.6219 3.06575 76.4652 2.87644 76.2658 2.72894C76.0145 2.6832 75.7545 2.6958 75.5099 2.76555C75.2654 2.83531 75.0443 2.95996 74.8671 3.12793C73.307 5.15391 71.8398 7.20207 71.83 9.85314C71.827 11.0856 71.575 12.3072 71.0866 13.4574C66.2741 24.4163 61.3834 35.3442 56.5269 46.2898C56.2433 46.8972 56.0965 47.54 55.8911 48.1651L55.9009 48.1607ZM106.129 108.014V108.045H107.566C108.03 108.069 108.489 107.951 108.87 107.709C109.25 107.468 109.53 107.118 109.665 106.715C110.54 104.609 111.464 102.521 112.296 100.397C112.917 98.8059 112.452 97.9724 110.633 97.5601C107.929 96.883 105.367 95.8044 103.052 94.3682C101.096 93.2023 99.0663 92.0629 97.0122 91.0167C95.7717 90.4365 94.4947 89.9228 93.1877 89.4784C92.1264 89.0838 91.339 89.3498 90.8206 90.3118C90.0625 91.7127 89.2311 93.0826 88.4975 94.4923C87.9693 95.5031 88.1405 95.7824 89.3778 95.9154C92.1558 96.211 94.9402 96.4814 97.7312 96.7267C100.387 96.9528 102.93 97.436 105.273 98.7039C107.004 99.6393 107.87 100.779 107.195 102.636C107.046 103.089 106.96 103.556 106.94 104.028C106.843 105.598 106.251 106.777 104.309 106.99C104.228 106.994 104.151 107.022 104.089 107.069C103.913 107.242 103.752 107.429 103.6 107.606C103.81 107.748 104.006 107.987 104.226 108.009C104.828 108.045 105.473 108.014 106.129 108.014ZM13.9386 107.663L13.9777 107.952C14.344 108.002 14.713 108.034 15.083 108.049C18.7217 108.049 22.3621 108.049 26.004 108.049C28.1999 108.049 28.87 107.353 28.9727 105.345C29.0949 102.924 29.2172 100.495 29.5302 98.0877C29.8383 95.7514 30.391 93.4417 30.8214 91.1142C31.0855 89.6779 30.973 89.5803 29.4568 89.3188C28.2048 89.1015 26.9528 88.8444 25.7252 88.5297C24.8351 88.3036 24.5319 88.5563 24.5955 89.3542C24.7177 90.8704 24.8156 92.391 24.9232 93.9072C25.1628 97.3119 25.4807 100.708 24.3314 104.05C23.9841 105.066 23.4217 105.673 22.2577 105.895C19.9102 106.338 17.5724 106.834 15.2347 107.318C14.7847 107.406 14.3592 107.544 13.9239 107.659L13.9386 107.663ZM57.6322 29.0579C57.4268 29.4347 57.3437 29.5633 57.2801 29.7007C56.6737 31.0307 56.0134 32.3606 54.5755 33.1897C54.4708 33.3267 54.406 33.4856 54.3872 33.6515C54.3684 33.8173 54.3962 33.9848 54.4679 34.1384C55.0402 34.9895 54.8592 35.7698 54.5071 36.6254C53.8468 38.2347 54.3457 39.4449 55.8862 40.3715C56.6737 40.8458 57.1872 40.7439 57.5393 39.9282C58.4881 37.7115 59.4956 35.4949 60.4053 33.234C60.5618 32.8572 60.6791 32.2631 60.4688 32.006C59.6668 31.0307 58.7278 30.1662 57.6322 29.0579ZM66.0589 41.3468C70.1818 40.2163 72.6467 32.7951 69.9128 30.2327C68.6314 33.9211 67.3843 37.5254 66.0589 41.3468ZM76.6278 32.7109C76.6278 30.9376 74.9698 29.4037 73.1358 29.581C72.7837 29.6165 72.1919 30.0953 72.2017 30.3524C72.2604 31.8287 72.4658 33.2961 72.6125 34.7856C72.6858 35.5437 73.1847 35.7521 73.9379 35.6723C75.317 35.4816 76.6082 34.094 76.6278 32.7109ZM63.2174 26.8413C62.9093 26.6418 62.6452 26.3314 62.3567 26.3137C61.8781 26.2973 61.4008 26.3681 60.953 26.5221C58.5908 27.227 58.4588 27.7102 60.151 29.2973C60.361 29.5662 60.6207 29.8002 60.9188 29.9889C61.1535 30.0864 61.7062 30.0421 61.7747 29.9091C62.2784 28.9515 62.699 27.9673 63.2174 26.8413Z" fill="#FF8181"/>
</svg>
