<svg width="130" height="130" viewBox="0 0 130 130" fill="none" xmlns="http://www.w3.org/2000/svg">
<path d="M111.396 99.3042C108.989 99.3042 106.588 99.3485 104.187 99.282C103.109 99.2523 102.04 99.0943 101.008 98.8121C99.653 98.4353 99.0515 97.4511 99.5699 96.2453C100.186 94.7557 99.7606 93.643 98.9048 92.3041C97.7992 90.6178 96.3266 89.1532 94.5765 87.9994C89.7445 84.6745 85.5238 80.729 82.6529 75.8081C81.4645 73.7599 80.5255 71.5876 79.5229 69.4508C78.6279 67.549 77.4834 65.8333 75.5761 64.623C70.7734 61.5774 66.7728 57.7648 63.095 53.6863C62.1213 52.53 60.6837 51.7685 59.0944 51.5672C54.5949 50.9288 51.3817 48.7521 49.8314 44.74C49.1173 42.8825 47.699 42.4126 46.046 43.676C44.7358 44.6705 43.6355 45.8721 42.7985 47.2226C41.0322 50.0724 38.8979 52.7214 36.4406 55.1138C35.4967 56.0669 35.5016 56.2132 36.6998 56.9181C40.1869 58.9707 42.241 61.768 42.2997 65.6427C42.3263 65.843 42.4021 66.0353 42.5214 66.2056C42.6408 66.3759 42.8006 66.5198 42.9893 66.6269C43.5148 66.8507 43.9696 67.1911 44.3115 67.6165C44.6535 68.0419 44.8715 68.5386 44.9455 69.0607C45.0396 69.4873 45.2422 69.888 45.5373 70.2311C48.9266 74.2431 48.8288 78.4591 46.4617 82.817C46.2514 83.2071 46.0117 83.584 45.8161 83.9829C44.5054 86.7626 45.0874 89.223 47.5278 91.3244C47.9191 91.6569 48.4669 92.3573 48.3299 92.5923C48.1644 92.8448 47.9451 93.065 47.6848 93.2401C47.4245 93.4151 47.1284 93.5415 46.8138 93.6119C45.9963 93.7419 45.1559 93.6856 44.3684 93.4479C40.1037 92.1179 37.3356 87.6625 38.4116 83.6948C38.9397 81.7309 39.9619 79.8866 40.6075 77.9316C41.0465 76.6972 41.2998 75.4148 41.3607 74.119C41.3949 72.5053 39.1207 71.4147 37.5361 72.1152C33.4328 73.9328 29.4664 73.4673 25.6272 71.428C24.0915 70.6123 24.0084 70.5813 23.2895 72.0664C21.788 75.1697 20.4088 78.2729 18.8438 81.3452C17.7874 83.4111 16.3153 85.3351 15.3812 87.4231C14.6966 89.16 14.2371 90.9631 14.0118 92.7962C13.7868 94.1705 14.1781 94.4321 15.6844 94.6138C17.4744 94.8266 19.2987 94.902 21.0251 95.3143C22.2214 95.6645 23.3298 96.2249 24.2872 96.9634C24.503 97.1781 24.6573 97.4375 24.7366 97.7189C24.8159 98.0002 24.8178 98.295 24.742 98.5771C24.5415 99.0205 23.7345 99.3529 23.1379 99.4638C22.2631 99.5579 21.3807 99.5786 20.5018 99.5258C18.1396 99.5258 15.7773 99.5524 13.4151 99.5258C10.2313 99.4638 8.34346 97.7525 8.31411 94.8621C8.2701 90.5973 9.01348 86.4079 10.0308 82.254C10.3389 80.9861 10.3976 79.665 10.7008 78.3971C10.9796 77.24 11.1899 76.0031 11.8452 75.0012C14.5106 70.7852 17.225 66.5781 20.1105 62.4951C21.3968 60.6642 22.4385 58.9485 21.8125 56.6698C21.5582 55.7344 21.8858 54.6571 22.0081 53.6508C22.3651 50.7027 22.9178 47.759 23.089 44.7843C23.2601 41.752 24.517 39.2561 27.2461 37.6646C31.5205 35.1554 35.7021 32.4068 40.7151 31.0901C48.0461 29.0972 55.9342 29.6601 62.8309 32.6683C65.2175 33.6747 66.8608 35.3682 68.2107 37.4562C69.1546 38.9014 70.7538 40.0097 72.1232 41.2156C78.2268 46.6108 83.7338 52.4272 87.7295 59.3165C88.1524 59.9762 88.4888 60.6785 88.7321 61.4089C90.0672 66.055 92.9234 70.0449 95.5106 74.1057C97.4033 77.0538 99.4232 79.9443 101.291 82.8924C101.825 83.7258 102.147 84.6657 102.592 85.5523C102.742 85.8765 102.945 86.1784 103.194 86.4478C107.155 90.3757 111.699 93.4435 117.548 94.7468C118.741 95.0128 119.842 95.8729 120.8 96.6487C121.02 96.8798 121.175 97.1559 121.251 97.4533C121.327 97.7507 121.322 98.0603 121.236 98.3555C121.045 98.6097 120.793 98.8215 120.499 98.975C120.205 99.1285 119.877 99.2199 119.539 99.2421C116.819 99.3352 114.095 99.282 111.376 99.282L111.396 99.3042ZM51.2399 43.8888C51.3292 44.2873 51.4485 44.6799 51.5969 45.0636C52.3354 46.6862 53.4309 48.1137 55.2063 48.8452C56.8014 49.4779 58.4584 49.9736 60.1557 50.3259C61.9163 50.716 61.7989 50.6096 62.1119 49.0358C62.4848 47.4516 62.975 45.892 63.5792 44.3676C63.7723 43.9679 64.0734 43.6188 64.4546 43.3524C64.5616 43.2861 64.6851 43.2448 64.814 43.2325C64.9429 43.2201 65.0731 43.2369 65.1931 43.2815C65.2816 43.3692 65.348 43.4733 65.3876 43.5866C65.4273 43.6999 65.4394 43.8197 65.423 43.9376C65.364 44.1845 65.2509 44.4182 65.0904 44.6247C63.9226 46.5419 63.3624 48.7144 63.4716 50.9022C63.4941 51.5429 63.7331 52.1619 64.1563 52.6755C67.4966 56.4437 71.0619 60.0479 75.4636 62.8231C78.0968 64.5049 80.1097 66.8671 81.2395 69.6015C82.066 71.4502 82.8926 73.3077 83.9147 75.0677C86.5313 79.5674 90.3411 83.1672 94.6352 86.3813C97.2077 88.3053 97.3789 88.2965 99.966 86.3813C100.944 85.6676 101.037 84.9981 100.377 84.0494C98.9879 82.0545 97.6332 80.0595 96.3518 77.9892C93.8086 73.9239 91.2263 69.872 88.8641 65.718C87.661 63.6078 87.1671 61.1562 85.9297 59.0682C81.9633 52.5292 76.6618 46.9212 70.6902 41.8141C69.3698 40.6792 67.9074 39.5664 66.9978 38.1788C65.8627 36.3346 64.1667 34.825 62.1119 33.8298C58.8596 32.2738 58.4439 32.3181 55.9986 34.783C53.4505 37.3542 51.9735 40.4132 51.2301 43.8888H51.2399ZM33.1443 55.9827C33.4328 55.8984 33.5795 55.8984 33.6333 55.8319C36.5286 53.1188 39.331 50.3347 41.2237 46.9211C41.4714 46.5161 41.5755 46.0517 41.522 45.5912C40.5928 41.6722 38.5925 38.3118 35.0125 35.8602C34.8091 35.7387 34.5774 35.6615 34.3356 35.6345C34.0938 35.6076 33.8485 35.6318 33.6187 35.7051C31.7645 36.5608 29.968 37.5156 28.2389 38.5645C27.1565 39.2285 26.257 40.1091 25.61 41.1384C24.9629 42.1677 24.5856 43.3181 24.5073 44.5006C24.2138 47.6305 23.7492 50.747 23.4362 53.8813C23.3188 55.0207 23.4362 56.1822 23.4362 57.3348L23.9546 57.3836C24.2359 56.4767 24.4418 55.552 24.5708 54.6172C24.635 53.7285 24.8933 52.8601 25.3307 52.0625C25.7681 51.265 26.3759 50.5541 27.1189 49.9712C28.9969 48.3664 31.5988 48.8806 32.4058 51.0973C32.8117 52.2056 32.797 53.4424 32.9682 54.6172C33.022 55.0561 33.0709 55.495 33.1345 55.9827H33.1443ZM31.726 54.5286C31.5524 53.4978 31.3024 52.4788 30.9777 51.4785C30.4886 50.2372 29.3295 50.0333 28.2046 50.88C27.5184 51.3877 26.9653 52.0274 26.5855 52.7527C26.2057 53.4781 26.0087 54.2709 26.0087 55.0739C25.9598 56.6299 25.2555 57.9289 24.3165 59.1879C22.727 61.3203 21.1278 63.4438 19.641 65.6382C17.4206 68.91 15.2394 72.2039 13.1755 75.5598C12.569 76.5351 12.3392 77.7277 12.0849 78.8537C11.7572 80.2635 11.5958 81.7087 11.3464 83.1362C10.9306 85.4592 10.4856 87.7822 10.1041 90.1097C10.0736 90.2779 10.0854 90.4503 10.1388 90.6138C10.1921 90.7773 10.2856 90.9278 10.4122 91.0539C11.2877 91.5992 12.5201 90.9963 12.8918 90.0476C13.6841 88.0039 14.2906 85.8405 15.479 83.9874C17.7094 80.5088 19.6137 76.8667 21.1718 73.0994C22.7417 69.3311 25.3778 66.117 27.9552 62.8763C29.9213 60.407 31.8776 57.8845 31.726 54.5286ZM56.4143 32.2339C56.1378 32.0964 55.848 31.9822 55.5486 31.8925C49.0831 30.762 42.8328 31.1921 36.8759 33.9362C35.8635 34.4061 36.0836 34.8229 36.7683 35.3726C39.3438 37.4146 41.2605 40.0513 42.3143 43.0022C42.8034 44.2789 42.9306 44.2922 44.0114 43.3701C45.3661 42.2175 46.8627 41.2466 48.8288 41.7963C49.8852 42.0934 50.2226 41.7963 50.521 40.9673C51.4988 38.001 53.2773 35.3025 55.6953 33.1161C55.958 32.8427 56.1983 32.5523 56.4143 32.2472V32.2339ZM111.533 97.8456V98.0363C113.851 98.0363 116.174 98.0363 118.492 98.0363C118.902 97.9727 119.3 97.8531 119.671 97.6816C119.459 97.3231 119.187 96.997 118.864 96.7152C118.334 96.3881 117.745 96.1494 117.123 96.0103C111.64 94.9109 107.287 92.1223 103.399 88.6024C101.296 86.6961 102.064 86.8025 99.4868 88.3319C98.8314 88.7176 98.6407 89.1654 99.0319 89.7949C99.5062 90.6722 100.045 91.5194 100.646 92.3307C101.074 92.7861 101.36 93.3367 101.476 93.9258C101.591 94.5149 101.531 95.1212 101.301 95.6822C100.734 97.2871 101.047 97.7747 102.91 97.8368C105.776 97.9343 108.652 97.8589 111.533 97.8589V97.8456ZM37.1008 60.9745C37.0617 60.5312 37.0226 60.2208 37.0128 59.8972C36.9688 58.6648 36.1276 58.0042 34.9832 57.5919C33.8387 57.1796 33.467 58.1372 32.8312 58.6116C32.5615 58.8283 32.3276 59.0791 32.1368 59.3564C30.2196 61.9365 28.3106 64.5196 26.4097 67.1056C24.6931 69.4242 24.7909 69.6459 27.5737 70.9049C29.0996 71.5965 30.3908 71.5433 31.77 70.5547C35.213 68.0676 36.8319 64.7871 37.1008 60.9745ZM45.9432 92.3972L46.1438 92.0958C45.8797 91.7588 45.6547 91.4086 45.3466 91.0805C43.7718 89.2496 43.1702 87.2015 43.9234 84.9583C44.3746 83.7615 44.9087 82.5917 45.5226 81.456C46.9899 78.5212 47.2393 75.5908 45.5226 72.6693C45.1973 72.2462 44.8181 71.8593 44.3929 71.5167C43.848 72.0162 43.3383 72.5462 42.867 73.1038C42.6958 73.3255 42.7838 73.7378 42.8034 74.0614C42.8856 75.8423 42.4948 77.615 41.6639 79.2305C41.0075 80.5515 40.4455 81.9094 39.9815 83.2958C38.8811 86.8025 40.4705 90.1008 44.0163 91.8209C44.6386 92.0641 45.2835 92.257 45.9432 92.3972ZM32.8117 71.6142C35.5652 72.0576 38.93 70.2355 40.1478 67.846C41.3117 65.5363 40.6662 62.0429 38.6219 60.5799C38.5849 62.6896 38.0468 64.7672 37.0441 66.6714C36.0415 68.5755 34.5979 70.2614 32.8117 71.6142ZM23.0841 97.8589C22.3407 96.857 21.2941 96.6575 20.2328 96.529C18.6922 96.3251 17.0978 96.3251 15.6111 95.9482C13.6205 95.4428 12.6766 96.6088 11.4246 97.5486C12.3587 98.1471 21.03 98.3821 23.0841 97.8589ZM12.4076 94.3922C12.4076 93.3282 12.3392 92.6189 11.1996 92.579C10.0601 92.5391 9.82534 93.2129 9.85469 94.0641C9.8227 94.3145 9.8227 94.5674 9.85469 94.8178C9.97206 95.2079 10.1677 95.895 10.3438 95.895C10.8781 95.9017 11.3978 95.7368 11.811 95.4295C12.0854 95.124 12.2885 94.7711 12.4076 94.3922ZM43.7375 69.4065C43.2485 68.8568 42.9844 68.2849 42.5442 68.143C42.2459 68.0499 41.6541 68.5065 41.2971 68.8124C40.9759 69.0831 40.7453 69.4303 40.6319 69.8143C40.539 70.2222 40.4901 70.865 40.7444 71.0556C41.077 71.3083 41.9084 71.428 42.2116 71.2241C42.7887 70.7941 43.1653 70.1158 43.7375 69.4065Z" fill="#FF8181"/>
</svg>
