<svg width="130" height="130" viewBox="0 0 130 130" fill="none" xmlns="http://www.w3.org/2000/svg">
<path d="M23.8717 83.1364L25.5883 84.595C26.454 85.3309 27.2022 86.253 28.2 86.7806C38.1868 92.0428 48.9219 94.8402 60.5227 94.2816C65.0417 94.0644 69.5411 93.426 74.0357 92.8629C77.2906 92.3965 80.6153 92.5201 83.8171 93.2265C88.8294 94.3749 93.9986 94.8602 99.1642 94.6673C99.5778 94.6616 99.9864 94.75 100.353 94.9244C104.148 96.6977 108.222 97.2873 112.442 97.2651C114.854 97.2651 117.265 97.3361 119.671 97.2651C120.619 97.232 121.55 97.0333 122.415 96.68C122.837 96.5462 123.19 96.2758 123.405 95.9207C123.621 95.5656 123.684 95.1508 123.583 94.7559C123.359 93.9003 122.542 93.7806 121.72 93.7097C119.052 93.4593 116.518 92.5225 114.418 91.0099C113.727 90.5269 113.105 89.9685 112.565 89.3474C110.046 86.4525 109.224 86.2663 105.625 87.9066C103.532 88.8597 102.035 88.6691 100.245 87.2904C99.7909 86.9624 99.299 86.68 98.7778 86.4481C93.442 83.9389 87.6759 82.7729 81.7679 82.2365C77.8847 81.8818 73.9428 81.9173 70.0302 81.7001C68.8823 81.6176 67.7485 81.4168 66.6507 81.1016C62.7382 80.0421 58.8843 78.8451 54.9619 77.8565C52.81 77.3112 50.9026 76.726 49.2349 75.1611C46.0413 72.1686 41.7717 71.6145 37.4972 72.4036C32.988 73.2548 29.5987 70.6613 28.6939 67.3453C28.2126 65.5188 28.0249 63.639 28.1364 61.7639C28.288 59.0507 28.2 56.4085 27.212 53.8328C26.8452 52.8708 27.1093 52.5427 28.2391 52.3388C30.1416 52.0019 31.9854 51.399 33.8732 50.9734C34.4225 50.8957 34.9818 50.8957 35.5311 50.9734C35.7717 51.032 36.0058 51.1107 36.2305 51.2083C38.534 51.798 38.578 51.829 38.5829 54.0234C38.5829 56.3243 38.5438 58.6251 38.5829 60.926C38.5819 61.7554 38.6621 62.5832 38.8226 63.3997C39.6833 67.496 43.2633 69.4333 47.6259 68.1787C47.8258 68.1133 48.0086 68.011 48.1627 67.8782C48.3167 67.7454 48.4387 67.5851 48.5209 67.4074C48.5844 67.2345 48.1198 66.7557 47.797 66.6404C45.4397 65.8203 44.7257 64.1401 44.7354 62.0476C44.7354 59.6403 44.8871 57.2242 44.7354 54.8258C44.6758 53.7622 44.3406 52.7262 43.7568 51.802C43.1731 50.8777 42.3572 50.0911 41.3755 49.506C40.9639 49.156 40.6431 48.7275 40.4365 48.2514C40.2066 47.8568 40.2066 47.3027 39.8887 47.0101C38.9106 46.1234 38.9986 45.1525 39.2921 44.0088C39.6763 42.3899 39.4684 40.7017 38.6998 39.1995C37.9312 37.6974 36.6438 36.463 35.0323 35.6832C32.7972 34.6547 30.5915 33.6527 28.8015 32.0036C28.3023 31.5128 27.6482 31.1737 26.9284 31.0327C26.0529 30.944 24.8107 30.9529 24.2923 31.4317C23.3217 32.2408 22.1985 32.885 20.9764 33.3336C18.5701 34.3754 17.5137 36.2595 17.1421 38.5603C16.5992 41.9518 15.621 45.2102 13.5082 48.1139C12.5473 49.3456 11.5138 50.5295 10.4124 51.6605C8.1627 54.121 6.52921 56.8341 6.05481 60.0482C5.67822 62.6328 6.09882 64.9469 8.28497 66.9153C9.38538 67.9039 10.1239 69.225 10.9944 70.4131C13.0954 73.2975 14.3896 76.6024 14.7652 80.0421C15.0831 82.5468 16.4329 84.9186 17.1225 87.4145C17.612 89.2394 17.9391 91.097 18.1006 92.9693C18.2327 94.3259 17.7338 94.7027 16.2324 94.8535C14.369 95.0397 12.5057 95.1993 10.6374 95.3544C9.84624 95.4187 9.0809 95.6424 8.39724 96.009C7.71358 96.3756 7.12885 96.8759 6.68571 97.4735C6.55073 97.6298 6.45318 97.8098 6.39928 98.0022C6.34539 98.1945 6.33633 98.395 6.3727 98.5907C6.50356 98.7452 6.67158 98.8706 6.86395 98.9574C7.05633 99.0442 7.26801 99.0901 7.48289 99.0916C11.6889 99.1227 15.8949 99.1581 20.096 99.0916C22.1355 99.0517 23.6076 97.7617 23.9499 95.8066C24.5848 92.1072 24.4888 88.3349 23.6663 84.6659C23.5782 84.2714 23.5244 83.8724 23.456 83.4734L23.8717 83.1364ZM71.3507 82.9503C74.2411 83.1187 77.2782 83.2207 80.3007 83.4822C86.0424 83.9788 91.6374 85.0339 96.9731 87.1397C98.8463 87.8756 99.6043 88.9528 99.3354 90.7217C99.3011 90.9434 99.3354 91.165 99.2913 91.4C99.0957 92.9427 98.7093 93.2841 96.9878 93.2708C92.0323 93.1924 87.1023 92.608 82.2912 91.5285C80.5138 91.1705 78.6878 91.0525 76.8723 91.1783C74.3047 91.3335 71.7566 91.7635 69.2037 92.1182C60.5569 93.3151 51.9688 93.293 43.4688 91.1562C38.2917 89.8411 33.324 87.9248 28.689 85.455C26.899 84.5107 26.4197 83.5532 27.3098 81.9084C28.6792 79.3372 30.2443 76.8546 31.8289 74.372C32.003 74.1832 32.2186 74.0293 32.462 73.9202C32.7053 73.811 32.971 73.749 33.2423 73.738C35.0127 73.636 36.7929 73.738 38.5536 73.605C42.3928 73.2947 45.919 73.902 48.6431 76.5132C49.9407 77.7335 51.6031 78.584 53.4262 78.9603C57.241 79.8869 61.0655 80.8179 64.7874 81.9971C66.9099 82.6532 68.9543 83.296 71.3605 82.9503H71.3507ZM13.9044 58.8335C13.0583 57.9956 13.2344 56.9538 13.7332 56.0007C15.4388 52.6427 18.3775 49.9257 22.0474 48.3134C22.8789 47.941 23.4511 48.0785 23.7739 48.9518C24.5221 50.9911 25.3584 53.0038 26.0725 55.0519C26.3497 55.8819 26.5139 56.7394 26.5616 57.6055C26.6154 58.4921 25.8915 59.0019 25.1922 58.7315C23.8863 58.2217 23.6222 58.3325 23.6369 59.6182C23.6373 63.1708 22.8869 66.6907 21.4263 69.9875C19.72 73.9237 19.68 78.2929 21.3138 82.2542C22.8466 86.3069 23.281 90.6343 22.5805 94.8712C22.2577 96.9903 21.3383 97.7484 18.9369 97.775C16.0025 97.806 13.1121 97.775 10.1972 97.775C9.8084 97.7555 9.42128 97.714 9.03814 97.6508L8.96967 97.2075C9.83066 96.9691 10.7059 96.7752 11.5911 96.6268C13.4055 96.4095 15.2298 96.2765 17.054 96.1258C18.4381 96.0105 19.3478 95.3278 19.5532 94.122C19.7826 93.0903 19.7976 92.0288 19.5972 90.9921C18.7902 87.9554 17.8365 84.9496 16.8486 81.9528C15.8589 78.7551 15.4574 75.4315 15.6602 72.1154C15.8199 67.7827 15.9308 63.45 15.9927 59.1172C15.9927 58.5764 15.5037 58.0266 15.2249 57.4858L13.9044 58.8335ZM7.48289 62.3091C7.56115 58.0887 9.0577 55.216 11.4199 52.7334C13.5718 50.4591 15.7384 48.1849 16.7704 45.2944C17.5531 42.9912 18.206 40.6533 18.7266 38.2899C19.2157 36.1664 20.4433 34.7433 22.7859 34.1493C23.3841 34.01 23.9319 33.7319 24.3754 33.3424C25.7937 31.9637 26.273 31.8928 27.9701 33.0897C29.2759 34.0118 30.5671 34.9561 31.8827 35.8516C32.626 36.357 32.2837 36.7383 31.7848 37.1018C30.3654 38.2262 28.6146 38.9504 26.7474 39.1854C24.8938 39.4115 24.1945 40.2583 24.0526 41.9163C23.9646 42.998 23.6516 44.062 23.5049 45.1392C23.3777 46.0835 22.7859 46.5401 21.8469 46.9125C17.5773 48.5218 14.6135 51.4344 12.4714 55.0386C11.1607 57.2553 11.7085 59.1039 13.6745 60.8506C14.1808 61.322 14.4858 61.941 14.5353 62.5973C14.5532 64.4431 14.4634 66.2884 14.2663 68.1255C14.2223 68.591 13.7772 69.3447 13.4055 69.389C13.0977 69.382 12.7946 69.3192 12.514 69.2042C12.2334 69.0893 11.9811 68.9245 11.772 68.7196C10.97 67.9659 10.4124 66.9906 9.59079 66.2636C8.1089 64.907 7.43398 63.3377 7.49267 62.3091H7.48289ZM28.0581 51.1729C27.349 50.8803 26.2926 50.7606 25.9991 50.2862C25.1384 48.8321 24.5319 47.2583 25.021 45.5072C25.2895 44.4064 25.4677 43.2892 25.5541 42.1645C25.6372 41.3045 25.9991 40.6661 26.9773 40.5686C29.6378 40.2982 31.7359 39.0524 33.6678 37.5097C34.3133 36.9954 34.8318 37.0929 35.4284 37.5097C36.1122 38.0081 36.6803 38.6244 37.1 39.3229C37.5197 40.0214 37.7827 40.7883 37.8738 41.5794C38.5732 46.5135 34.1079 50.8226 28.0679 51.1729H28.0581ZM121.608 95.2259L121.632 95.5983C120.983 95.7727 120.316 95.8885 119.642 95.944C116.218 95.913 112.795 95.944 109.415 95.7047C107.434 95.5514 105.479 95.1883 103.59 94.6229C100.475 93.7363 100.46 93.5412 100.979 90.6818C101.106 89.9725 101.433 89.6356 102.211 89.7952C103.864 90.1232 105.312 89.6622 106.745 88.9617C108.892 87.911 109.474 88.0307 110.961 89.7686C113.484 92.7167 116.829 94.3702 120.835 95.0219C121.097 95.0757 121.355 95.1438 121.608 95.2259ZM21.4801 76.2516C21.5877 75.4537 21.6611 74.7798 21.7638 74.1104C22.111 71.7342 22.8838 69.6772 26.0529 69.4023C26.2587 69.366 26.4557 69.297 26.6349 69.1984C27.2707 68.9102 27.6815 69.0831 28.1021 69.6151C28.8162 70.5328 29.6672 71.3618 30.3714 72.275C30.4945 72.4436 30.5746 72.6349 30.6059 72.8351C30.6372 73.0352 30.6189 73.2392 30.5524 73.4321C28.9776 76.163 27.3473 78.8702 25.6617 81.5538C25.537 81.6848 25.3782 81.7855 25.1997 81.8466C25.0212 81.9078 24.8286 81.9275 24.6395 81.904C23.2799 81.2169 22.0181 80.4233 21.8714 78.8008C21.798 77.9097 21.6073 77.023 21.4801 76.2516ZM44.9017 66.8754C43.3856 67.0217 42.2607 66.6537 41.6298 65.7405C40.9298 64.8143 40.4822 63.7507 40.324 62.6372C40.0452 58.6783 39.9866 54.7061 39.835 50.7384C39.835 50.7118 39.8839 50.6808 40.0355 50.5256C40.4457 50.6953 40.8371 50.9002 41.2044 51.1374C41.8998 51.6817 42.4516 52.3607 42.819 53.1241C43.1864 53.8876 43.3599 54.7161 43.3269 55.5485C43.3269 57.3528 43.2047 59.1571 43.146 60.9614C43.0187 63.0522 43.634 65.1249 44.9017 66.8754ZM23.9597 68.294C23.9255 68.2275 23.857 68.1521 23.8668 68.0945C24.2776 65.8779 24.6542 63.6613 25.1481 61.4447C25.2362 61.0501 25.8084 60.7398 26.1556 60.3851L26.5224 60.6068C26.5224 61.0501 26.5909 61.4934 26.6056 61.9368C26.6447 63.2667 26.6056 64.5967 26.7278 65.8868C26.9333 67.6512 26.1165 68.427 23.9646 68.294H23.9597ZM36.2843 49.5636C36.6 49.0963 36.9548 48.6517 37.3456 48.2336C37.6911 47.9917 38.0711 47.7934 38.4753 47.644C38.5438 48.0873 38.7688 48.5927 38.6465 48.974C38.3824 49.8606 37.5119 50.0956 36.2843 49.5636Z" fill="#FF8181"/>
</svg>
